<?xml version="1.0" encoding="UTF-8" standalone="no"?>
<!-- Created with Inkscape (http://www.inkscape.org/) -->
<svg
   xmlns:dc="http://purl.org/dc/elements/1.1/"
   xmlns:cc="http://creativecommons.org/ns#"
   xmlns:rdf="http://www.w3.org/1999/02/22-rdf-syntax-ns#"
   xmlns:svg="http://www.w3.org/2000/svg"
   xmlns="http://www.w3.org/2000/svg"
   xmlns:sodipodi="http://sodipodi.sourceforge.net/DTD/sodipodi-0.dtd"
   xmlns:inkscape="http://www.inkscape.org/namespaces/inkscape"
   version="1.0"
   width="400"
   height="222.19255"
   id="svg1901"
   sodipodi:version="0.32"
   inkscape:version="0.46"
   sodipodi:docname="Calibri.svg"
   inkscape:output_extension="org.inkscape.output.svg.inkscape">
  <metadata
     id="metadata2461">
    <rdf:RDF>
      <cc:Work
         rdf:about="">
        <dc:format>image/svg+xml</dc:format>
        <dc:type
           rdf:resource="http://purl.org/dc/dcmitype/StillImage" />
      </cc:Work>
    </rdf:RDF>
  </metadata>
  <sodipodi:namedview
     inkscape:window-height="974"
     inkscape:window-width="1280"
     inkscape:pageshadow="2"
     inkscape:pageopacity="0.0"
     guidetolerance="10.0"
     gridtolerance="10.0"
     objecttolerance="10.0"
     borderopacity="1.0"
     bordercolor="#666666"
     pagecolor="#ffffff"
     id="base"
     showgrid="false"
     inkscape:zoom="1.415"
     inkscape:cx="200"
     inkscape:cy="111.09628"
     inkscape:window-x="-8"
     inkscape:window-y="-8"
     inkscape:current-layer="svg1901" />
  <defs
     id="defs1903">
    <inkscape:perspective
       sodipodi:type="inkscape:persp3d"
       inkscape:vp_x="0 : 111.09628 : 1"
       inkscape:vp_y="0 : 1000 : 0"
       inkscape:vp_z="400 : 111.09628 : 1"
       inkscape:persp3d-origin="200 : 74.064184 : 1"
       id="perspective2463" />
  </defs>
  <g
     transform="translate(1.7909357e-7,9.830371)"
     id="layer1"
     style="opacity:1">
    <path
       style="font-size:59.80871582px;font-style:normal;font-variant:normal;font-weight:normal;font-stretch:normal;text-align:start;line-height:125%;writing-mode:lr-tb;text-anchor:start;fill:#000000;fill-opacity:1;stroke:none;stroke-width:1px;stroke-linecap:butt;stroke-linejoin:miter;stroke-opacity:1;font-family:Calibri;-inkscape-font-specification:Calibri"
       d="M 28.268963,-4.7781699 C 28.268935,-4.4082239 28.249466,-4.086986 28.210556,-3.8144552 C 28.17159,-3.5418551 28.108316,-3.3228292 28.020734,-3.157377 C 27.933095,-2.9918568 27.826016,-2.8701758 27.699496,-2.7923336 C 27.572919,-2.7144241 27.431769,-2.6754862 27.276045,-2.6755197 L 16.64598,-2.6755197 L 16.64598,30.090779 C 16.645963,30.246531 16.607025,30.382814 16.529167,30.499627 C 16.451274,30.616441 16.314991,30.708919 16.120318,30.77706 C 15.925612,30.845202 15.667648,30.903609 15.346426,30.952281 C 15.025172,31.000954 14.621191,31.02529 14.134482,31.02529 C 13.667212,31.02529 13.268098,31.000954 12.937139,30.952281 C 12.606153,30.903609 12.343322,30.845202 12.148645,30.77706 C 11.953943,30.708919 11.81766,30.616441 11.739797,30.499627 C 11.661909,30.382814 11.622971,30.246531 11.622983,30.090779 L 11.622983,-2.6755197 L 0.99291813,-2.6755197 C 0.83716499,-2.6754862 0.69601501,-2.7144241 0.56946775,-2.7923336 C 0.44291848,-2.8701758 0.34070642,-2.9918568 0.26283127,-3.157377 C 0.18495472,-3.3228292 0.12168058,-3.5418551 0.073008686,-3.8144552 C 0.024335766,-4.086986 -4.3805212e-07,-4.4082239 0,-4.7781699 C -4.3805212e-07,-5.1480445 0.024335766,-5.4741497 0.073008686,-5.7564863 C 0.12168058,-6.0387496 0.18495472,-6.26751 0.26283127,-6.4427679 C 0.34070642,-6.6179513 0.44291848,-6.7444996 0.56946775,-6.8224131 C 0.69601501,-6.9002513 0.83716499,-6.9391892 0.99291813,-6.939227 L 27.276045,-6.939227 C 27.431769,-6.9391892 27.572919,-6.9002513 27.699496,-6.8224131 C 27.826016,-6.7444996 27.933095,-6.6179513 28.020734,-6.4427679 C 28.108316,-6.26751 28.17159,-6.0387496 28.210556,-5.7564863 C 28.249466,-5.4741497 28.268935,-5.1480445 28.268963,-4.7781699 L 28.268963,-4.7781699 z M 55.866246,30.119982 C 55.866219,30.275735 55.827281,30.40715 55.749432,30.514229 C 55.67153,30.621309 55.544981,30.713786 55.369787,30.791662 C 55.19454,30.869538 54.951178,30.927945 54.6397,30.966883 C 54.328171,31.005821 53.938792,31.02529 53.471561,31.02529 C 52.984813,31.02529 52.585699,31.005821 52.274219,30.966883 C 51.962692,30.927945 51.71933,30.869538 51.544132,30.791662 C 51.368889,30.713786 51.24234,30.621309 51.164487,30.514229 C 51.086589,30.40715 51.047651,30.275735 51.047673,30.119982 L 51.047673,14.729751 C 51.047651,13.230657 50.930837,12.023581 50.697231,11.10852 C 50.463582,10.193499 50.122875,9.4050057 49.67511,8.7430388 C 49.227303,8.0811162 48.648101,7.5749231 47.937503,7.2244582 C 47.226867,6.8740404 46.404303,6.6988198 45.469809,6.6987956 C 44.262717,6.6988198 43.055641,7.127137 41.848579,7.9837485 C 40.64149,8.8404058 39.376007,10.096154 38.052127,11.750997 L 38.052127,30.119982 C 38.052118,30.275735 38.01318,30.40715 37.935313,30.514229 C 37.857428,30.621309 37.73088,30.713786 37.555668,30.791662 C 37.380438,30.869538 37.137076,30.927945 36.825581,30.966883 C 36.514069,31.005821 36.114956,31.02529 35.628238,31.02529 C 35.160976,31.02529 34.771597,31.005821 34.460099,30.966883 C 34.14859,30.927945 33.900361,30.869538 33.715411,30.791662 C 33.530451,30.713786 33.403902,30.621309 33.335766,30.514229 C 33.26762,30.40715 33.233549,30.275735 33.233554,30.119982 L 33.233554,-8.8958598 C 33.233549,-9.0515717 33.26762,-9.1878545 33.335766,-9.3047084 C 33.403902,-9.421482 33.530451,-9.5188269 33.715411,-9.5967432 C 33.900361,-9.6745786 34.14859,-9.7329855 34.460099,-9.771964 C 34.771597,-9.8108613 35.160976,-9.8303303 35.628238,-9.830371 C 36.114956,-9.8303303 36.514069,-9.8108613 36.825581,-9.771964 C 37.137076,-9.7329855 37.380438,-9.6745786 37.555668,-9.5967432 C 37.73088,-9.5188269 37.857428,-9.421482 37.935313,-9.3047084 C 38.01318,-9.1878545 38.052118,-9.0515717 38.052127,-8.8958598 L 38.052127,6.844813 C 39.434414,5.3846647 40.826445,4.29927 42.228224,3.5886256 C 43.629976,2.8780357 45.041475,2.5227271 46.462727,2.5226988 C 48.214917,2.5227271 49.68969,2.8196288 50.887054,3.4134047 C 52.084373,4.0072356 53.052954,4.8005958 53.7928,5.7934879 C 54.532595,6.7864301 55.063124,7.9497007 55.384389,9.2833031 C 55.7056,10.616949 55.866219,12.228005 55.866246,14.116478 L 55.866246,30.119982 z M 87.084759,15.839483 C 87.084732,16.598788 86.89491,17.139051 86.515292,17.460276 C 86.13562,17.781527 85.702436,17.942146 85.215737,17.942133 L 67.985687,17.942133 C 67.985679,19.402318 68.131696,20.716474 68.423739,21.884602 C 68.715765,23.052749 69.202489,24.055401 69.883913,24.89256 C 70.565317,25.729732 71.451155,26.372207 72.541429,26.81999 C 73.631679,27.26778 74.965303,27.491673 76.542305,27.491669 C 77.788302,27.491673 78.898033,27.389461 79.871501,27.185033 C 80.84493,26.980613 81.686962,26.751852 82.397602,26.498751 C 83.108197,26.245659 83.692266,26.016899 84.14981,25.81247 C 84.607307,25.608051 84.952881,25.505839 85.186534,25.505833 C 85.322791,25.505839 85.444472,25.539909 85.551577,25.608045 C 85.658631,25.676192 85.741374,25.778404 85.799806,25.914682 C 85.858188,26.05097 85.901993,26.240792 85.931222,26.48415 C 85.9604,26.727516 85.975002,27.024418 85.975027,27.374856 C 85.975002,27.627956 85.965267,27.846981 85.945824,28.031934 C 85.926329,28.216892 85.901993,28.382378 85.872815,28.528393 C 85.843586,28.674412 85.794914,28.805828 85.726798,28.92264 C 85.658631,29.039455 85.571021,29.151402 85.463967,29.25848 C 85.356862,29.365561 85.040491,29.540781 84.514854,29.784142 C 83.989167,30.027505 83.307754,30.266 82.47061,30.499627 C 81.633423,30.733255 80.664842,30.942547 79.564865,31.127502 C 78.464849,31.312457 77.291844,31.404935 76.045846,31.404935 C 73.884775,31.404935 71.991418,31.103166 70.36577,30.499627 C 68.740102,29.89609 67.372407,29.000518 66.262682,27.812908 C 65.152945,26.625304 64.31578,25.135928 63.751183,23.344776 C 63.18658,21.553639 62.90428,19.47046 62.904282,17.095233 C 62.90428,14.836847 63.196314,12.807207 63.780387,11.006308 C 64.364452,9.2054488 65.206485,7.6771352 66.306487,6.4213626 C 67.406478,5.1656389 68.735234,4.2019252 70.292762,3.5302186 C 71.850268,2.8585667 73.592741,2.5227271 75.520183,2.5226988 C 77.583878,2.5227271 79.340952,2.8536995 80.791411,3.5156169 C 82.241828,4.177589 83.434302,5.0682941 84.368836,6.1877348 C 85.303322,7.3072249 85.989603,8.6213799 86.427681,10.130204 C 86.865707,11.639069 87.084732,13.250126 87.084759,14.963379 L 87.084759,15.839483 z M 82.236983,14.408513 C 82.295367,11.877564 81.735635,9.8917298 80.557783,8.4510041 C 79.37989,7.0103232 77.632551,6.2899715 75.315759,6.289947 C 74.128137,6.2899715 73.086548,6.5138646 72.190987,6.9616269 C 71.295403,7.4094369 70.545848,8.0032403 69.94232,8.7430388 C 69.338772,9.4828816 68.871517,10.344383 68.540553,11.327546 C 68.209572,12.310749 68.024617,13.337736 67.985687,14.408513 L 82.236983,14.408513 z M 130.51033,40.545623 C 130.5103,40.701365 130.4665,40.837647 130.37891,40.954471 C 130.29128,41.071275 130.15986,41.16862 129.98467,41.246506 C 129.80942,41.324371 129.56606,41.382778 129.25458,41.421727 C 128.94305,41.460654 128.55367,41.480123 128.08644,41.480134 C 127.59969,41.480123 127.20545,41.460654 126.9037,41.421727 C 126.60191,41.382778 126.35368,41.324371 126.15901,41.246506 C 125.9643,41.16862 125.83288,41.071275 125.76476,40.954471 C 125.6966,40.837647 125.66253,40.701365 125.66255,40.545623 L 125.66255,27.082821 C 124.8643,27.881052 124.10501,28.557599 123.38468,29.112462 C 122.66431,29.66733 121.95369,30.115116 121.25283,30.455822 C 120.55193,30.796529 119.84618,31.039891 119.13558,31.185909 C 118.42494,31.331926 117.68999,31.404935 116.93071,31.404935 C 115.02274,31.404935 113.39708,31.030157 112.05373,30.280601 C 110.71037,29.531047 109.61524,28.518661 108.76834,27.24344 C 107.92144,25.968226 107.3033,24.469116 106.91392,22.746105 C 106.52454,21.02311 106.32985,19.207629 106.32985,17.299657 C 106.32985,15.041271 106.57321,13.001897 107.05994,11.181529 C 107.54666,9.3612005 108.27188,7.8085507 109.2356,6.5235748 C 110.19931,5.2386475 111.38691,4.2505976 112.79842,3.5594221 C 114.20991,2.8683012 115.84044,2.5227271 117.69,2.5226988 C 118.46875,2.5227271 119.19883,2.6054702 119.88026,2.7709283 C 120.56166,2.9364426 121.23821,3.1992736 121.90991,3.5594221 C 122.58157,3.9196252 123.26298,4.3868803 123.95415,4.9611889 C 124.64528,5.5355492 125.3997,6.2218302 126.21742,7.0200338 L 126.21742,3.8368551 C 126.2174,3.6616615 126.25633,3.5205115 126.33423,3.4134047 C 126.41209,3.3063529 126.53863,3.2138753 126.71388,3.1359717 C 126.88907,3.0581236 127.11297,3.0045839 127.38556,2.9753526 C 127.6581,2.946177 127.99881,2.9315753 128.40768,2.9315474 C 128.79703,2.9315753 129.12801,2.946177 129.4006,2.9753526 C 129.67314,3.0045839 129.89216,3.0581236 130.05768,3.1359717 C 130.22313,3.2138753 130.33995,3.3063529 130.40812,3.4134047 C 130.47623,3.5205115 130.5103,3.6616615 130.51033,3.8368551 L 130.51033,40.545623 z M 125.66255,11.634183 C 124.35811,10.018278 123.09749,8.7868661 121.8807,7.9399433 C 120.66387,7.0930663 119.39352,6.6696163 118.06965,6.6695921 C 116.84309,6.6696163 115.8015,6.9616508 114.94488,7.5456964 C 114.08823,8.1297886 113.39222,8.8988126 112.85683,9.8527709 C 112.32142,10.806771 111.93204,11.887299 111.68869,13.094357 C 111.44532,14.30145 111.32364,15.527995 111.32365,16.773994 C 111.32364,18.117367 111.42585,19.421787 111.63028,20.68726 C 111.8347,21.952753 112.19001,23.072218 112.69621,24.045659 C 113.20239,25.019114 113.87407,25.80274 114.71125,26.396539 C 115.5484,26.990347 116.59973,27.287249 117.86522,27.287245 C 118.50769,27.287249 119.12583,27.199638 119.71965,27.024414 C 120.31343,26.849197 120.92184,26.557163 121.54486,26.14831 C 122.16785,25.739466 122.82006,25.208937 123.5015,24.55672 C 124.18289,23.904516 124.90324,23.101422 125.66255,22.147434 L 125.66255,11.634183 z M 161.93327,30.119982 C 161.93325,30.275735 161.89917,30.40715 161.83106,30.514229 C 161.76289,30.621309 161.64121,30.713786 161.46602,30.791662 C 161.29077,30.869538 161.06201,30.927945 160.77973,30.966883 C 160.49741,31.005821 160.15184,31.02529 159.74301,31.02529 C 159.2952,31.02529 158.93016,31.005821 158.64788,30.966883 C 158.36556,30.927945 158.14166,30.869538 157.9762,30.791662 C 157.81069,30.713786 157.69875,30.621309 157.64036,30.514229 C 157.58193,30.40715 157.55273,30.275735 157.55275,30.119982 L 157.55275,26.644769 C 156.05362,28.299635 154.57398,29.506711 153.11382,30.266 C 151.65363,31.02529 150.17399,31.404935 148.67489,31.404935 C 146.92267,31.404935 145.4479,31.1129 144.25057,30.528831 C 143.05322,29.944762 142.08464,29.151402 141.34482,28.148748 C 140.605,27.146099 140.07447,25.977961 139.75323,24.644331 C 139.43199,23.310713 139.27137,21.689922 139.27138,19.781952 L 139.27138,3.8368551 C 139.27137,3.6811304 139.30544,3.5497149 139.37359,3.4426082 C 139.44173,3.3355563 139.57314,3.2382115 139.76784,3.1505735 C 139.96252,3.0629908 140.21562,3.0045839 140.52713,2.9753526 C 140.83862,2.946177 141.228,2.9315753 141.69526,2.9315474 C 142.16251,2.9315753 142.55189,2.946177 142.8634,2.9753526 C 143.1749,3.0045839 143.42313,3.0629908 143.60809,3.1505735 C 143.79304,3.2382115 143.92445,3.3355563 144.00234,3.4426082 C 144.08021,3.5497149 144.11914,3.6811304 144.11915,3.8368551 L 144.11915,19.139476 C 144.11914,20.677536 144.23109,21.908948 144.45499,22.833715 C 144.67888,23.758499 145.01958,24.546992 145.47711,25.199197 C 145.93462,25.851413 146.51383,26.357606 147.21472,26.717777 C 147.91559,27.077957 148.73329,27.258045 149.66781,27.258042 C 150.87487,27.258045 152.07708,26.829728 153.27444,25.973089 C 154.47176,25.116459 155.74211,23.860711 157.0855,22.205841 L 157.0855,3.8368551 C 157.08547,3.6811304 157.11954,3.5497149 157.18771,3.4426082 C 157.25583,3.3355563 157.38724,3.2382115 157.58195,3.1505735 C 157.77662,3.0629908 158.02485,3.0045839 158.32664,2.9753526 C 158.62839,2.946177 159.02264,2.9315753 159.50938,2.9315474 C 159.97661,2.9315753 160.36599,2.946177 160.67752,2.9753526 C 160.989,3.0045839 161.23236,3.0629908 161.40761,3.1505735 C 161.5828,3.2382115 161.71422,3.3355563 161.80186,3.4426082 C 161.88944,3.5497149 161.93325,3.6811304 161.93327,3.8368551 L 161.93327,30.119982 z M 175.65889,30.119982 C 175.65889,30.275735 175.61995,30.40715 175.54208,30.514229 C 175.4642,30.621309 175.33765,30.713786 175.16244,30.791662 C 174.98721,30.869538 174.74384,30.927945 174.43235,30.966883 C 174.12084,31.005821 173.72172,31.02529 173.23501,31.02529 C 172.76774,31.02529 172.37836,31.005821 172.06687,30.966883 C 171.75536,30.927945 171.50713,30.869538 171.32218,30.791662 C 171.13722,30.713786 171.01067,30.621309 170.94253,30.514229 C 170.87439,30.40715 170.84032,30.275735 170.84032,30.119982 L 170.84032,3.8368551 C 170.84032,3.7005994 170.87439,3.5740511 170.94253,3.4572099 C 171.01067,3.3404236 171.13722,3.2430787 171.32218,3.1651752 C 171.50713,3.087327 171.75536,3.0289201 172.06687,2.9899544 C 172.37836,2.9510443 172.76774,2.9315753 173.23501,2.9315474 C 173.72172,2.9315753 174.12084,2.9510443 174.43235,2.9899544 C 174.74384,3.0289201 174.98721,3.087327 175.16244,3.1651752 C 175.33765,3.2430787 175.4642,3.3404236 175.54208,3.4572099 C 175.61995,3.5740511 175.65889,3.7005994 175.65889,3.8368551 L 175.65889,30.119982 z M 176.21376,-5.0410011 C 176.21375,-3.9117654 175.99959,-3.1427413 175.57128,-2.7339267 C 175.14296,-2.3250448 174.35446,-2.1206207 173.2058,-2.1206537 C 172.0766,-2.1206207 171.3027,-2.3201776 170.88413,-2.7193249 C 170.46554,-3.1184051 170.25625,-3.8728274 170.25625,-4.9825942 C 170.25625,-6.1117582 170.47041,-6.8807823 170.89873,-7.2896687 C 171.32704,-7.6984788 172.11553,-7.9029029 173.26421,-7.9029416 C 174.3934,-7.9029029 175.16729,-7.703346 175.58589,-7.3042704 C 176.00446,-6.9051185 176.21375,-6.1506962 176.21376,-5.0410011 L 176.21376,-5.0410011 z M 203.51901,26.119106 C 203.51899,26.450083 203.50925,26.73725 203.48981,26.980609 C 203.47032,27.223975 203.43625,27.428399 203.3876,27.593882 C 203.3389,27.759371 203.28049,27.905388 203.21238,28.031934 C 203.14421,28.158485 202.98846,28.34344 202.74512,28.5868 C 202.50173,28.830164 202.08802,29.131933 201.50397,29.492107 C 200.91988,29.852285 200.2628,30.173523 199.53274,30.455822 C 198.80263,30.738123 198.00927,30.966883 197.15265,31.142104 C 196.296,31.317324 195.41016,31.404935 194.49514,31.404935 C 192.60663,31.404935 190.9323,31.093431 189.47214,30.470424 C 188.01196,29.847417 186.79028,28.937243 185.8071,27.739899 C 184.82392,26.542561 184.07436,25.072654 183.55844,23.330174 C 183.04251,21.58771 182.78454,19.577539 182.78454,17.299657 C 182.78454,14.710298 183.10091,12.485969 183.73366,10.626663 C 184.3664,8.7673971 185.23276,7.2439507 186.33277,6.0563192 C 187.43276,4.8687372 188.72744,3.9877666 190.21683,3.4134047 C 191.70619,2.8390977 193.31725,2.5519305 195.05,2.5519022 C 195.88715,2.5519305 196.69998,2.6298064 197.48849,2.78553 C 198.27697,2.9413098 199.00219,3.1457339 199.66415,3.398803 C 200.32608,3.651927 200.91501,3.9439614 201.43096,4.2749072 C 201.94687,4.6059062 202.32165,4.8882062 202.5553,5.121808 C 202.7889,5.3554613 202.94952,5.5404164 203.03715,5.676674 C 203.12474,5.8129819 203.19775,5.9736009 203.25618,6.1585313 C 203.31456,6.3435112 203.3535,6.5528025 203.37299,6.786406 C 203.39244,7.0200577 203.40217,7.3120921 203.4022,7.6625103 C 203.40217,8.421823 203.31456,8.9523523 203.13937,9.2540996 C 202.96412,9.5558902 202.74996,9.7067746 202.49689,9.7067535 C 202.20483,9.7067746 201.86899,9.5461557 201.48937,9.2248962 C 201.1097,8.9036799 200.62785,8.5483713 200.0438,8.1589693 C 199.45971,7.7696128 198.75396,7.4143042 197.92655,7.0930425 C 197.0991,6.7718284 196.12078,6.6112094 194.9916,6.6111852 C 192.67478,6.6112094 190.89823,7.5019145 189.66196,9.2833031 C 188.42567,11.064735 187.80753,13.64924 187.80754,17.036826 C 187.80753,18.730639 187.96815,20.215148 188.2894,21.490355 C 188.61063,22.765582 189.08275,23.831508 189.70577,24.688136 C 190.32877,25.544776 191.09292,26.182385 191.99824,26.600964 C 192.90354,27.01955 193.94026,27.228842 195.10841,27.228838 C 196.21813,27.228842 197.19158,27.053621 198.02876,26.703176 C 198.86591,26.352738 199.59112,25.968226 200.20442,25.549638 C 200.81767,25.131061 201.3336,24.751416 201.7522,24.410703 C 202.17076,24.070002 202.49687,23.899649 202.73052,23.899642 C 202.86678,23.899649 202.98359,23.938587 203.08096,24.016456 C 203.17828,24.094339 203.26102,24.225754 203.32919,24.410703 C 203.39731,24.595665 203.44598,24.829292 203.47521,25.111586 C 203.50439,25.393892 203.51899,25.729732 203.51901,26.119106 L 203.51901,26.119106 z M 231.55435,30.090779 C 231.55432,30.246531 231.51538,30.382814 231.43753,30.499627 C 231.35963,30.616441 231.22822,30.713786 231.04329,30.791662 C 230.85831,30.869538 230.60034,30.927945 230.2694,30.966883 C 229.9384,31.005821 229.51982,31.02529 229.01365,31.02529 C 228.48796,31.02529 228.05478,31.010688 227.71409,30.981485 C 227.37336,30.952281 227.0862,30.903609 226.85259,30.835467 C 226.61894,30.767326 226.42912,30.669981 226.28312,30.543433 C 226.13708,30.416885 226.00567,30.266 225.88887,30.090779 L 214.79155,15.547448 L 214.79155,30.119982 C 214.79155,30.275735 214.75261,30.40715 214.67474,30.514229 C 214.59686,30.621309 214.47031,30.713786 214.2951,30.791662 C 214.11987,30.869538 213.8765,30.927945 213.56501,30.966883 C 213.2535,31.005821 212.85438,31.02529 212.36767,31.02529 C 211.9004,31.02529 211.51102,31.005821 211.19953,30.966883 C 210.88802,30.927945 210.63979,30.869538 210.45484,30.791662 C 210.26988,30.713786 210.14333,30.621309 210.07519,30.514229 C 210.00705,30.40715 209.97298,30.275735 209.97298,30.119982 L 209.97298,-8.8958598 C 209.97298,-9.0515717 210.00705,-9.1878545 210.07519,-9.3047084 C 210.14333,-9.421482 210.26988,-9.5188269 210.45484,-9.5967432 C 210.63979,-9.6745786 210.88802,-9.7329855 211.19953,-9.771964 C 211.51102,-9.8108613 211.9004,-9.8303303 212.36767,-9.830371 C 212.85438,-9.8303303 213.2535,-9.8108613 213.56501,-9.771964 C 213.8765,-9.7329855 214.11987,-9.6745786 214.2951,-9.5967432 C 214.47031,-9.5188269 214.59686,-9.421482 214.67474,-9.3047084 C 214.75261,-9.1878545 214.79155,-9.0515717 214.79155,-8.8958598 L 214.79155,14.875768 L 224.72074,3.953669 C 224.87647,3.7590063 225.04195,3.5983873 225.21719,3.4718117 C 225.3924,3.3452908 225.60169,3.2382115 225.84507,3.1505735 C 226.08841,3.0629908 226.37558,3.0045839 226.70657,2.9753526 C 227.03752,2.946177 227.43664,2.9315753 227.90391,2.9315474 C 228.39062,2.9315753 228.79946,2.946177 229.13046,2.9753526 C 229.46141,3.0045839 229.72911,3.0532563 229.93356,3.12137 C 230.13796,3.1895391 230.28397,3.2771494 230.37161,3.3842013 C 230.45919,3.491308 230.503,3.632458 230.50302,3.8076516 C 230.503,4.0413062 230.43972,4.2749338 230.3132,4.508535 C 230.18663,4.7421889 229.97734,5.0147544 229.68533,5.3262323 L 220.16499,14.846565 L 230.85347,28.718215 C 231.10654,29.04919 231.28662,29.316888 231.39373,29.521311 C 231.50078,29.725736 231.55432,29.915559 231.55435,30.090779 L 231.55435,30.090779 z M 274.92151,16.627977 C 274.92148,18.90586 274.67325,20.954968 274.17682,22.775308 C 273.68033,24.595665 272.95025,26.148314 271.98656,27.433263 C 271.02282,28.718218 269.84008,29.7014 268.43834,30.382813 C 267.03655,31.064228 265.43036,31.404935 263.61976,31.404935 C 262.78258,31.404935 262.00869,31.322191 261.29809,31.156706 C 260.58746,30.991219 259.89144,30.723521 259.21004,30.35361 C 258.52861,29.9837 257.8472,29.516445 257.1658,28.951843 C 256.48437,28.387245 255.76402,27.705831 255.00474,26.9076 L 255.00474,30.119982 C 255.00473,30.275735 254.96579,30.412017 254.88793,30.528831 C 254.81004,30.645645 254.68349,30.738123 254.50828,30.806264 C 254.33305,30.874405 254.11403,30.927945 253.8512,30.966883 C 253.58836,31.005821 253.25252,31.02529 252.84368,31.02529 C 252.4543,31.02529 252.12332,31.005821 251.85076,30.966883 C 251.57819,30.927945 251.3543,30.874405 251.17908,30.806264 C 251.00386,30.738123 250.88705,30.645645 250.82864,30.528831 C 250.77023,30.412017 250.74103,30.275735 250.74103,30.119982 L 250.74103,-8.8958598 C 250.74103,-9.0515717 250.7751,-9.1878545 250.84324,-9.3047084 C 250.91138,-9.421482 251.03793,-9.5188269 251.22289,-9.5967432 C 251.40784,-9.6745786 251.65607,-9.7329855 251.96758,-9.771964 C 252.27908,-9.8108613 252.66846,-9.8303303 253.13572,-9.830371 C 253.62243,-9.8303303 254.02155,-9.8108613 254.33306,-9.771964 C 254.64455,-9.7329855 254.88792,-9.6745786 255.06315,-9.5967432 C 255.23836,-9.5188269 255.36491,-9.421482 255.44279,-9.3047084 C 255.52066,-9.1878545 255.5596,-9.0515717 255.55961,-8.8958598 L 255.55961,6.844813 C 256.33835,6.0466095 257.09278,5.3749302 257.82287,4.8297732 C 258.55295,4.2846683 259.26843,3.8417494 259.96933,3.5010152 C 260.6702,3.1603356 261.37108,2.9121064 262.07198,2.7563266 C 262.77285,2.6006029 263.51267,2.5227271 264.29144,2.5226988 C 266.19938,2.5227271 267.82991,2.9023719 269.18303,3.6616343 C 270.5361,4.420951 271.63609,5.4382044 272.48302,6.7133974 C 273.32989,7.9886386 273.94803,9.4828816 274.33744,11.196131 C 274.72679,12.909419 274.92148,14.720033 274.92151,16.627977 L 274.92151,16.627977 z M 269.8401,17.182843 C 269.84008,15.839498 269.73787,14.535078 269.53347,13.269577 C 269.32902,12.004112 268.97371,10.884647 268.46754,9.9111778 C 267.96133,8.9377506 267.28965,8.1541248 266.4525,7.5602981 C 265.61532,6.966518 264.57373,6.6696163 263.32773,6.6695921 C 262.70471,6.6696163 262.09143,6.7572267 261.48791,6.9324234 C 260.88436,7.107668 260.27109,7.3997025 259.64809,7.8085276 C 259.02507,8.2173989 258.37773,8.7430609 257.70606,9.3855153 C 257.03437,10.028013 256.31889,10.835975 255.55961,11.809404 L 255.55961,22.293451 C 256.88349,23.909384 258.14897,25.140795 259.35606,25.987691 C 260.56312,26.834595 261.81887,27.258045 263.12331,27.258042 C 264.33036,27.258045 265.36222,26.966011 266.21887,26.381937 C 267.07549,25.797873 267.7715,25.023982 268.30692,24.060261 C 268.8423,23.096554 269.23168,22.016027 269.47506,20.818676 C 269.7184,19.621344 269.84008,18.409401 269.8401,17.182843 L 269.8401,17.182843 z M 297.52499,5.5598601 C 297.52497,5.9882026 297.51523,6.3483784 297.49578,6.6403887 C 297.4763,6.9324473 297.43736,7.1612077 297.37897,7.3266703 C 297.32054,7.49218 297.24754,7.6187283 297.15994,7.7063155 C 297.07231,7.793949 296.95063,7.8377541 296.7949,7.8377311 C 296.63913,7.8377541 296.44931,7.793949 296.22543,7.7063155 C 296.00152,7.6187283 295.74842,7.531118 295.46614,7.4434842 C 295.18383,7.3558973 294.86745,7.2731542 294.51703,7.1952547 C 294.16657,7.1174025 293.78693,7.0784646 293.37809,7.0784408 C 292.89135,7.0784646 292.41436,7.1758094 291.94712,7.3704755 C 291.47985,7.5651886 290.98826,7.8864265 290.47235,8.3341902 C 289.95641,8.7819989 289.41614,9.3758023 288.85156,10.115602 C 288.28694,10.855443 287.66394,11.76075 286.98253,12.831525 L 286.98253,30.119982 C 286.98252,30.275735 286.94359,30.40715 286.86572,30.514229 C 286.78783,30.621309 286.66129,30.713786 286.48607,30.791662 C 286.31084,30.869538 286.06748,30.927945 285.75599,30.966883 C 285.44448,31.005821 285.04536,31.02529 284.55865,31.02529 C 284.09138,31.02529 283.702,31.005821 283.39051,30.966883 C 283.079,30.927945 282.83077,30.869538 282.64582,30.791662 C 282.46086,30.713786 282.33431,30.621309 282.26617,30.514229 C 282.19803,30.40715 282.16396,30.275735 282.16396,30.119982 L 282.16396,3.8368551 C 282.16396,3.6811304 282.19316,3.5497149 282.25157,3.4426082 C 282.30997,3.3355563 282.42679,3.2382115 282.60201,3.1505735 C 282.77723,3.0629908 283.00112,3.0045839 283.27369,2.9753526 C 283.54625,2.946177 283.90643,2.9315753 284.35422,2.9315474 C 284.78253,2.9315753 285.13784,2.946177 285.42015,2.9753526 C 285.70244,3.0045839 285.92147,3.0629908 286.07723,3.1505735 C 286.23297,3.2382115 286.34492,3.3355563 286.41307,3.4426082 C 286.4812,3.5497149 286.51527,3.6811304 286.51528,3.8368551 L 286.51528,7.6625103 C 287.23562,6.6112094 287.91217,5.754575 288.54492,5.0926045 C 289.17765,4.4306855 289.77632,3.9098907 290.34093,3.5302186 C 290.90552,3.1506012 291.46525,2.8877702 292.02013,2.7417248 C 292.57498,2.5957357 293.13472,2.5227271 293.69933,2.5226988 C 293.95241,2.5227271 294.23958,2.5373288 294.56084,2.566504 C 294.88206,2.5957357 295.2179,2.6492754 295.56835,2.7271231 C 295.91878,2.8050271 296.23515,2.8926374 296.51747,2.9899544 C 296.79975,3.087327 296.99931,3.1846718 297.11614,3.2819891 C 297.23293,3.3793615 297.31081,3.4718391 297.34977,3.5594221 C 297.38869,3.6470597 297.42276,3.7590063 297.45198,3.8952621 C 297.48116,4.0315718 297.50063,4.2311286 297.51039,4.4939333 C 297.5201,4.7567907 297.52497,5.1120992 297.52499,5.5598601 L 297.52499,5.5598601 z M 327.51697,16.686384 C 327.51694,18.827984 327.23464,20.799217 326.67007,22.600087 C 326.10544,24.400975 325.26341,25.953625 324.14397,27.258042 C 323.02447,28.562466 321.62271,29.579719 319.93867,30.309805 C 318.25458,31.039891 316.30281,31.404935 314.08337,31.404935 C 311.9223,31.404935 310.03868,31.083697 308.4325,30.44122 C 306.8263,29.798745 305.48781,28.864235 304.41702,27.637687 C 303.34622,26.411145 302.54799,24.92177 302.02233,23.169555 C 301.49667,21.417356 301.23384,19.431522 301.23384,17.212046 C 301.23384,15.070474 301.51127,13.099242 302.06614,11.298343 C 302.621,9.4974833 303.45817,7.9448334 304.57764,6.6403887 C 305.6971,5.3359923 307.094,4.3236062 308.76834,3.6032273 C 310.44266,2.8829029 312.39929,2.5227271 314.63823,2.5226988 C 316.79927,2.5227271 318.6829,2.843965 320.28911,3.4864134 C 321.89527,4.1289166 323.23377,5.0634268 324.30458,6.289947 C 325.37535,7.5165162 326.17845,9.0058919 326.71387,10.758079 C 327.24924,12.510305 327.51694,14.486405 327.51697,16.686384 L 327.51697,16.686384 z M 322.43556,17.007622 C 322.43554,15.586402 322.30412,14.243043 322.04132,12.977543 C 321.77846,11.712078 321.34528,10.602347 320.74176,9.6483465 C 320.1382,8.6943885 319.3205,7.9399662 318.28867,7.3850773 C 317.25679,6.8302353 315.97184,6.5528025 314.43381,6.5527782 C 313.01256,6.5528025 311.79088,6.8058991 310.76877,7.3120686 C 309.74664,7.8182852 308.90461,8.5337696 308.24267,9.458524 C 307.58072,10.383321 307.08913,11.47845 306.7679,12.743915 C 306.44665,14.009416 306.28603,15.391712 306.28604,16.890808 C 306.28603,18.331525 306.41745,19.684618 306.68029,20.950091 C 306.94311,22.215584 307.38116,23.320447 307.99444,24.264686 C 308.60771,25.208937 309.43027,25.958492 310.46214,26.513353 C 311.49398,27.068223 312.77893,27.345656 314.317,27.345652 C 315.71875,27.345656 316.93556,27.092559 317.96743,26.586362 C 318.99927,26.080173 319.84617,25.369556 320.50813,24.454508 C 321.17006,23.539473 321.65678,22.449211 321.96831,21.183719 C 322.27979,19.918246 322.43554,18.526215 322.43556,17.007622 L 322.43556,17.007622 z M 371.3806,3.7784482 C 371.38056,3.914758 371.36109,4.0802442 371.32219,4.2749072 C 371.28321,4.4696234 371.21507,4.7129855 371.11777,5.0049941 L 363.37885,29.973965 C 363.32041,30.188124 363.22793,30.363345 363.10141,30.499627 C 362.97483,30.63591 362.79961,30.74299 362.57575,30.820866 C 362.35182,30.898741 362.04519,30.952281 361.65584,30.981485 C 361.26643,31.010688 360.77971,31.02529 360.19567,31.02529 C 359.5921,31.02529 359.08591,31.005821 358.67709,30.966883 C 358.26821,30.927945 357.9421,30.869538 357.69877,30.791662 C 357.45538,30.713786 357.27529,30.606707 357.15851,30.470424 C 357.04166,30.334142 356.95405,30.168655 356.89567,29.973965 L 351.37622,10.904096 L 351.31781,10.641265 L 351.2594,10.904096 L 346.1488,29.973965 C 346.09037,30.188124 345.99789,30.363345 345.87136,30.499627 C 345.7448,30.63591 345.55498,30.74299 345.30189,30.820866 C 345.04878,30.898741 344.72268,30.952281 344.32358,30.981485 C 343.92445,31.010688 343.43286,31.02529 342.8488,31.02529 C 342.24525,31.02529 341.75366,31.005821 341.37403,30.966883 C 340.99437,30.927945 340.68287,30.869538 340.43952,30.791662 C 340.19614,30.713786 340.01606,30.606707 339.89925,30.470424 C 339.78243,30.334142 339.69482,30.168655 339.63642,29.973965 L 331.95591,5.0049941 C 331.85856,4.7129855 331.79042,4.4696234 331.75148,4.2749072 C 331.71254,4.0802442 331.69307,3.914758 331.69308,3.7784482 C 331.69307,3.6032546 331.73201,3.4621046 331.80989,3.3549978 C 331.88776,3.247946 332.01918,3.1603356 332.20414,3.0921665 C 332.38909,3.0240529 332.63732,2.9802477 332.94882,2.9607509 C 333.26033,2.9413098 333.63997,2.9315753 334.08776,2.9315474 C 334.63289,2.9315753 335.07094,2.946177 335.40192,2.9753526 C 335.73288,3.0045839 335.98598,3.0532563 336.16121,3.12137 C 336.33642,3.1895391 336.46297,3.2868839 336.54085,3.4134047 C 336.61872,3.5399804 336.68686,3.6908649 336.74528,3.8660586 L 343.08243,25.535037 L 343.14084,25.797868 L 343.19924,25.535037 L 349.01074,3.8660586 C 349.04965,3.6908649 349.11293,3.5399804 349.20056,3.4134047 C 349.28815,3.2868839 349.41957,3.1895391 349.59481,3.12137 C 349.77001,3.0532563 350.0085,3.0045839 350.31029,2.9753526 C 350.61204,2.946177 351.00629,2.9315753 351.49303,2.9315474 C 351.96027,2.9315753 352.34478,2.946177 352.64657,2.9753526 C 352.94831,3.0045839 353.18681,3.0532563 353.36205,3.12137 C 353.53725,3.1895391 353.6638,3.2820167 353.7417,3.398803 C 353.81955,3.5156442 353.87796,3.651927 353.91692,3.8076516 L 360.19567,25.535037 L 360.25407,25.797868 L 360.28328,25.535037 L 366.53282,3.8660586 C 366.57172,3.6908649 366.635,3.5399804 366.72264,3.4134047 C 366.81022,3.2868839 366.9465,3.1895391 367.13149,3.12137 C 367.31641,3.0532563 367.56951,3.0045839 367.89078,2.9753526 C 368.21198,2.946177 368.6257,2.9315753 369.13193,2.9315474 C 369.59915,2.9315753 369.97392,2.9413098 370.25626,2.9607509 C 370.53852,2.9802477 370.76242,3.0289201 370.92794,3.1067683 C 371.09339,3.1846718 371.2102,3.2722822 371.27839,3.3695995 C 371.34649,3.4669718 371.38056,3.6032546 371.3806,3.7784482 L 371.3806,3.7784482 z M 399.99999,30.119982 C 399.99996,30.275735 399.96103,30.40715 399.88318,30.514229 C 399.80527,30.621309 399.67873,30.713786 399.50353,30.791662 C 399.32829,30.869538 399.08492,30.927945 398.77345,30.966883 C 398.46192,31.005821 398.07254,31.02529 397.60531,31.02529 C 397.11856,31.02529 396.71944,31.005821 396.40796,30.966883 C 396.09644,30.927945 395.85308,30.869538 395.67788,30.791662 C 395.50263,30.713786 395.37609,30.621309 395.29823,30.514229 C 395.22033,30.40715 395.1814,30.275735 395.18142,30.119982 L 395.18142,14.729751 C 395.1814,13.230657 395.06458,12.023581 394.83098,11.10852 C 394.59733,10.193499 394.25662,9.4050057 393.80885,8.7430388 C 393.36105,8.0811162 392.78185,7.5749231 392.07125,7.2244582 C 391.36061,6.8740404 390.53805,6.6988198 389.60355,6.6987956 C 388.39646,6.6988198 387.18939,7.127137 385.98232,7.9837485 C 384.77523,8.8404058 383.50975,10.096154 382.18587,11.750997 L 382.18587,30.119982 C 382.18586,30.275735 382.14692,30.40715 382.06906,30.514229 C 381.99117,30.621309 381.86462,30.713786 381.68941,30.791662 C 381.51418,30.869538 381.27082,30.927945 380.95933,30.966883 C 380.64781,31.005821 380.2487,31.02529 379.76198,31.02529 C 379.29472,31.02529 378.90534,31.005821 378.59384,30.966883 C 378.28234,30.927945 378.03411,30.869538 377.84916,30.791662 C 377.6642,30.713786 377.53765,30.621309 377.46951,30.514229 C 377.40136,30.40715 377.36729,30.275735 377.3673,30.119982 L 377.3673,3.8368551 C 377.36729,3.6811304 377.3965,3.5497149 377.45491,3.4426082 C 377.51331,3.3355563 377.63013,3.2382115 377.80535,3.1505735 C 377.98057,3.0629908 378.20446,3.0045839 378.47703,2.9753526 C 378.74959,2.946177 379.10977,2.9315753 379.55756,2.9315474 C 379.98587,2.9315753 380.34118,2.946177 380.62349,2.9753526 C 380.90578,3.0045839 381.1248,3.0629908 381.28056,3.1505735 C 381.43631,3.2382115 381.54825,3.3355563 381.6164,3.4426082 C 381.68454,3.5497149 381.71861,3.6811304 381.71862,3.8368551 L 381.71862,7.3120686 C 383.19825,5.6572302 384.67302,4.4452872 386.14294,3.676236 C 387.61284,2.9072391 389.09734,2.5227271 390.59647,2.5226988 C 392.34866,2.5227271 393.82344,2.8196288 395.0208,3.4134047 C 396.21812,4.0072356 397.1867,4.8005958 397.92654,5.7934879 C 398.66634,6.7864301 399.19687,7.9497007 399.51813,9.2833031 C 399.83935,10.616949 399.99996,12.218271 399.99999,14.087275 L 399.99999,30.119982 z"
       id="text2380" />
    <path
       style="font-size:59.80871582px;font-style:normal;font-variant:normal;font-weight:bold;font-stretch:normal;text-align:start;line-height:125%;writing-mode:lr-tb;text-anchor:start;fill:#000000;fill-opacity:1;stroke:none;stroke-width:1px;stroke-linecap:butt;stroke-linejoin:miter;stroke-opacity:1;font-family:Calibri;-inkscape-font-specification:Calibri"
       d="M 18.66102,79.29028 C 18.661001,79.854917 18.641532,80.307571 18.602613,80.648242 C 18.563656,80.988984 18.505249,81.251815 18.427392,81.436736 C 18.349497,81.621726 18.261887,81.748274 18.164561,81.816381 C 18.067197,81.884557 17.960118,81.918627 17.843323,81.918593 C 17.707022,81.918627 17.556137,81.884557 17.390669,81.816381 C 17.225165,81.748274 17.020741,81.675265 16.777396,81.597355 C 16.534017,81.519514 16.246849,81.446505 15.915894,81.378329 C 15.584905,81.310222 15.195525,81.276151 14.747755,81.276116 C 14.222077,81.276151 13.769424,81.358895 13.389793,81.524346 C 13.010134,81.689867 12.693764,81.952698 12.44068,82.31284 C 12.18757,82.67305 12.002615,83.140305 11.885814,83.714607 C 11.768988,84.288974 11.710581,84.994724 11.710593,85.831859 L 11.710593,88.226543 L 16.47076,88.226543 C 16.645963,88.226571 16.806582,88.275244 16.952617,88.372561 C 17.098617,88.469934 17.220298,88.630552 17.31766,88.854418 C 17.414987,89.078339 17.487996,89.384975 17.536686,89.774328 C 17.585341,90.163733 17.609677,90.640723 17.609695,91.205298 C 17.609677,92.276116 17.512332,93.040273 17.31766,93.497771 C 17.122953,93.955314 16.840653,94.184074 16.47076,94.184052 L 11.710593,94.184052 L 11.710593,115.26896 C 11.710581,115.46365 11.652174,115.634 11.535372,115.78002 C 11.418546,115.92604 11.223857,116.04772 10.951303,116.14507 C 10.678726,116.24241 10.299081,116.31542 9.8123674,116.36409 C 9.3256328,116.41276 8.7318294,116.4371 8.0309555,116.4371 C 7.330064,116.4371 6.7411279,116.41276 6.2641453,116.36409 C 5.7871487,116.31542 5.4075039,116.24241 5.1252098,116.14507 C 4.842904,116.04772 4.6482143,115.92604 4.5411403,115.78002 C 4.4340557,115.634 4.3805161,115.46365 4.3805212,115.26896 L 4.3805212,94.184052 L 1.109732,94.184052 C 0.73981988,94.184074 0.46238715,93.955314 0.27743301,93.497771 C 0.092476847,93.040273 -7.3008686e-07,92.276116 0,91.205298 C -7.3008686e-07,90.640723 0.024335474,90.163733 0.073008686,89.774328 C 0.12168029,89.384975 0.18982166,89.078339 0.27743301,88.854418 C 0.36504234,88.630552 0.48185612,88.469934 0.6278747,88.372561 C 0.77389057,88.275244 0.944244,88.226571 1.1389355,88.226543 L 4.3805212,88.226543 L 4.3805212,86.036283 C 4.3805161,84.264637 4.5557367,82.711988 4.9061837,81.378329 C 5.2566194,80.04474 5.8066176,78.935009 6.55618,78.049133 C 7.3057278,77.163333 8.2597071,76.496521 9.4181205,76.048695 C 10.576514,75.600949 11.944208,75.377056 13.521209,75.377015 C 14.280484,75.377056 15.000836,75.44033 15.682266,75.566837 C 16.363663,75.693426 16.89906,75.829709 17.288457,75.975686 C 17.677818,76.121743 17.940649,76.258026 18.076951,76.384535 C 18.213215,76.511123 18.325161,76.696078 18.412791,76.939401 C 18.500382,77.182802 18.563656,77.494305 18.602613,77.873912 C 18.641532,78.253595 18.661001,78.725717 18.66102,79.29028 L 18.66102,79.29028 z M 48.214936,101.98138 C 48.214906,104.20086 47.922871,106.22563 47.338832,108.0557 C 46.754734,109.88579 45.868896,111.46278 44.681316,112.78667 C 43.493682,114.11056 42.004307,115.13268 40.213184,115.85303 C 38.422017,116.57338 36.329104,116.93356 33.934437,116.93356 C 31.617615,116.93356 29.602577,116.61232 27.889318,115.96984 C 26.176039,115.32737 24.754805,114.39286 23.62561,113.16631 C 22.496405,111.93977 21.65924,110.43092 21.114112,108.63977 C 20.568978,106.84864 20.296412,104.80439 20.296414,102.50704 C 20.296412,100.28759 20.593314,98.257955 21.18712,96.418118 C 21.780921,94.578321 22.671626,93.001335 23.859238,91.687155 C 25.046839,90.373025 26.531348,89.355771 28.312768,88.635392 C 30.094168,87.915068 32.182214,87.554892 34.576913,87.554864 C 36.913173,87.554892 38.937945,87.871263 40.651236,88.503976 C 42.364482,89.136746 43.780849,90.066389 44.900342,91.292908 C 46.01978,92.519478 46.852078,94.028323 47.397239,95.819447 C 47.94234,97.610612 48.214906,99.664588 48.214936,101.98138 L 48.214936,101.98138 z M 40.651236,102.27341 C 40.651214,100.98848 40.549002,99.805738 40.3446,98.725193 C 40.140153,97.644683 39.794579,96.705305 39.307876,95.907057 C 38.821131,95.10885 38.173788,94.485843 37.365845,94.038035 C 36.557864,93.590271 35.540611,93.366378 34.314082,93.366355 C 33.223804,93.366378 32.269825,93.565935 31.452142,93.965026 C 30.634432,94.364162 29.962753,94.948231 29.437102,95.717235 C 28.911429,96.486279 28.517182,97.411055 28.254361,98.491565 C 27.99152,99.57211 27.860105,100.80352 27.860114,102.1858 C 27.860105,103.47077 27.967184,104.65351 28.181352,105.73403 C 28.395501,106.81456 28.741075,107.75394 29.218076,108.55216 C 29.695054,109.3504 30.342397,109.96854 31.160107,110.40658 C 31.97779,110.84464 32.990176,111.06367 34.197268,111.06366 C 35.306983,111.06367 36.270697,110.86411 37.088412,110.46499 C 37.90609,110.06588 38.577769,109.48668 39.103452,108.72738 C 39.629093,107.9681 40.018472,107.04819 40.271591,105.96765 C 40.524665,104.88714 40.651214,103.65573 40.651236,102.27341 L 40.651236,102.27341 z M 76.629916,114.7433 C 76.785641,115.07427 76.85865,115.34684 76.848942,115.561 C 76.839181,115.77515 76.698031,115.95038 76.425492,116.08666 C 76.1529,116.22294 75.734317,116.31542 75.169742,116.36409 C 74.605117,116.41276 73.855562,116.4371 72.921075,116.4371 C 72.044949,116.4371 71.339199,116.4225 70.803823,116.39329 C 70.268406,116.36409 69.849823,116.30568 69.548073,116.21807 C 69.246285,116.13046 69.022392,116.02338 68.876393,115.89684 C 68.730358,115.77029 68.618411,115.60967 68.540554,115.41498 L 63.72198,106.15748 L 58.903407,115.41498 C 58.825522,115.60967 58.718443,115.77029 58.582169,115.89684 C 58.445878,116.02338 58.236586,116.13046 57.954294,116.21807 C 57.671986,116.30568 57.27774,116.36409 56.771553,116.39329 C 56.265354,116.4225 55.603409,116.4371 54.785717,116.4371 C 53.929078,116.4371 53.247664,116.41276 52.741474,116.36409 C 52.235278,116.31542 51.865368,116.22294 51.631742,116.08666 C 51.398113,115.95038 51.276432,115.77515 51.266698,115.561 C 51.256963,115.34684 51.339706,115.07427 51.514928,114.7433 L 58.728186,101.92297 L 52.069794,89.891141 C 51.894571,89.540727 51.802094,89.243825 51.792361,89.000436 C 51.782625,88.757101 51.904306,88.567278 52.157404,88.430968 C 52.410499,88.294713 52.81448,88.197368 53.369348,88.138933 C 53.924211,88.080554 54.678633,88.051351 55.632618,88.051323 C 56.489247,88.051351 57.175528,88.065953 57.691463,88.095128 C 58.207383,88.124359 58.611364,88.168165 58.903407,88.226543 C 59.195433,88.284978 59.409591,88.377456 59.545883,88.503976 C 59.682157,88.630552 59.798971,88.791171 59.896325,88.985834 L 64.539678,97.688469 L 69.153826,88.985834 C 69.212215,88.830109 69.299825,88.693827 69.416658,88.576985 C 69.533452,88.460199 69.718408,88.362854 69.971524,88.28495 C 70.224601,88.207102 70.570175,88.148696 71.008247,88.10973 C 71.446278,88.07082 72.044949,88.051351 72.804261,88.051323 C 73.660873,88.051351 74.347154,88.07082 74.863106,88.10973 C 75.379009,88.148696 75.748919,88.236306 75.972838,88.372561 C 76.196705,88.508871 76.303785,88.698694 76.294076,88.942029 C 76.284316,89.185418 76.172369,89.501789 75.958236,89.891141 L 69.475065,101.71855 L 76.629916,114.7433 z M 102.91304,116.14507 C 102.91303,118.18931 102.73781,119.84417 102.38738,121.10966 C 102.03692,122.37513 101.5064,123.44106 100.79579,124.30744 C 100.08516,125.1738 99.194456,125.82601 98.12367,126.26407 C 97.05287,126.70211 95.797122,126.92114 94.356421,126.92115 C 93.558191,126.92114 92.876777,126.8676 92.312178,126.76053 C 91.747577,126.65344 91.338729,126.54149 91.085632,126.42469 C 90.832536,126.30786 90.657315,126.16185 90.55997,125.98664 C 90.462626,125.81141 90.394484,125.61185 90.355545,125.38796 C 90.316608,125.16406 90.287405,124.91097 90.267935,124.62867 C 90.248467,124.34637 90.238733,123.98132 90.238732,123.53354 C 90.238733,122.98841 90.253334,122.53575 90.282537,122.17558 C 90.311741,121.8154 90.365281,121.52823 90.443156,121.31408 C 90.521033,121.09992 90.608643,120.94416 90.705987,120.84682 C 90.803333,120.74948 90.929881,120.7008 91.085632,120.70081 C 91.182977,120.7008 91.382534,120.72514 91.684303,120.77382 C 91.986072,120.82248 92.312177,120.84682 92.66262,120.84682 C 93.168812,120.84682 93.606863,120.76894 93.976776,120.6132 C 94.346684,120.45744 94.648453,120.20921 94.882084,119.86851 C 95.115708,119.5278 95.290929,119.08975 95.407746,118.55435 C 95.524556,118.01895 95.582963,117.16719 95.582967,115.99905 L 95.582967,89.277869 C 95.582963,89.083206 95.64137,88.912852 95.758188,88.766808 C 95.874998,88.620818 96.069687,88.49427 96.342258,88.387163 C 96.614818,88.280111 96.984728,88.197368 97.45199,88.138933 C 97.919239,88.080554 98.513042,88.051351 99.233402,88.051323 C 99.953745,88.051351 100.54755,88.080554 101.01481,88.138933 C 101.48206,88.197368 101.85684,88.280111 102.13915,88.387163 C 102.42144,88.49427 102.62099,88.620818 102.73782,88.766808 C 102.85462,88.912852 102.91303,89.083206 102.91304,89.277869 L 102.91304,116.14507 z M 103.46791,80.400012 C 103.46789,81.879689 103.17099,82.90181 102.5772,83.466377 C 101.98338,84.03101 100.85905,84.31331 99.204198,84.313278 C 97.568797,84.31331 96.459066,84.040744 95.875002,83.495581 C 95.290929,82.950482 94.998894,81.9673 94.998898,80.54603 C 94.998894,79.066424 95.300663,78.039436 95.904206,77.465063 C 96.507739,76.890767 97.627204,76.6036 99.262605,76.603561 C 100.91746,76.6036 102.03206,76.881033 102.6064,77.43586 C 103.18073,77.990764 103.46789,78.978814 103.46791,80.400012 L 103.46791,80.400012 z M 135.00766,115.26896 C 135.00764,115.46365 134.95896,115.634 134.86165,115.78002 C 134.76427,115.92604 134.59392,116.04772 134.35059,116.14507 C 134.1072,116.24241 133.78596,116.31542 133.38687,116.36409 C 132.98773,116.41276 132.48641,116.4371 131.88289,116.4371 C 131.24039,116.4371 130.7196,116.41276 130.32051,116.36409 C 129.92137,116.31542 129.605,116.24241 129.37139,116.14507 C 129.13774,116.04772 128.97226,115.92604 128.87494,115.78002 C 128.77757,115.634 128.7289,115.46365 128.72892,115.26896 L 128.72892,112.261 C 127.28819,113.81852 125.82315,114.98666 124.33379,115.76542 C 122.8444,116.54418 121.30149,116.93356 119.70504,116.93356 C 117.91389,116.93356 116.40991,116.64152 115.19311,116.05745 C 113.97629,115.47339 112.99311,114.67516 112.24356,113.66277 C 111.494,112.65039 110.9586,111.47738 110.63737,110.14375 C 110.31612,108.81013 110.1555,107.1504 110.15551,105.16456 L 110.15551,89.219462 C 110.1555,89.024799 110.20904,88.854446 110.31613,88.708401 C 110.4232,88.562411 110.61789,88.44073 110.9002,88.343357 C 111.18249,88.24604 111.56214,88.173032 112.03913,88.124331 C 112.51612,88.075687 113.10505,88.051351 113.80594,88.051323 C 114.52629,88.051351 115.12009,88.075687 115.58735,88.124331 C 116.0546,88.173032 116.42938,88.24604 116.71169,88.343357 C 116.99398,88.44073 117.19353,88.562411 117.31036,88.708401 C 117.42716,88.854446 117.48557,89.024799 117.48558,89.219462 L 117.48558,103.93801 C 117.48557,105.30085 117.57318,106.34244 117.74841,107.06278 C 117.92362,107.78315 118.19132,108.40128 118.55151,108.91721 C 118.91167,109.43314 119.36919,109.83225 119.92407,110.11455 C 120.47892,110.39685 121.12627,110.538 121.8661,110.538 C 122.8006,110.538 123.73997,110.1973 124.68424,109.51588 C 125.62846,108.83447 126.63598,107.84155 127.7068,106.53712 L 127.7068,89.219462 C 127.70678,89.024799 127.76031,88.854446 127.86742,88.708401 C 127.97447,88.562411 128.16916,88.44073 128.45148,88.343357 C 128.73376,88.24604 129.10854,88.173032 129.57582,88.124331 C 130.04305,88.075687 130.63685,88.051351 131.35723,88.051323 C 132.07756,88.051351 132.67136,88.075687 133.13864,88.124331 C 133.60587,88.173032 133.97578,88.24604 134.24837,88.343357 C 134.52091,88.44073 134.7156,88.562411 134.83244,88.708401 C 134.94923,88.854446 135.00764,89.024799 135.00766,89.219462 L 135.00766,115.26896 z M 183.86508,115.26896 C 183.86504,115.46365 183.80663,115.634 183.68986,115.78002 C 183.573,115.92604 183.37831,116.04772 183.10579,116.14507 C 182.83318,116.24241 182.46327,116.31542 181.99606,116.36409 C 181.52876,116.41276 180.93496,116.4371 180.21465,116.4371 C 179.47478,116.4371 178.87125,116.41276 178.40403,116.36409 C 177.93674,116.31542 177.56196,116.24241 177.2797,116.14507 C 176.99736,116.04772 176.80267,115.92604 176.69563,115.78002 C 176.58851,115.634 176.53497,115.46365 176.53501,115.26896 L 176.53501,99.820323 C 176.53497,98.944236 176.45223,98.146008 176.28678,97.425638 C 176.12126,96.705305 175.86816,96.087165 175.52749,95.571217 C 175.18675,95.05531 174.75843,94.656197 174.24254,94.373875 C 173.72657,94.091597 173.10843,93.950447 172.38812,93.950424 C 171.51198,93.950447 170.62614,94.291154 169.7306,94.972546 C 168.835,95.653981 167.86155,96.646898 166.81025,97.9513 L 166.81025,115.26896 C 166.81022,115.46365 166.75182,115.634 166.63503,115.78002 C 166.51819,115.92604 166.31863,116.04772 166.03636,116.14507 C 165.75403,116.24241 165.37925,116.31542 164.91203,116.36409 C 164.44474,116.41276 163.86068,116.4371 163.15982,116.4371 C 162.43944,116.4371 161.84564,116.41276 161.37841,116.36409 C 160.91113,116.31542 160.53635,116.24241 160.25407,116.14507 C 159.97175,116.04772 159.77219,115.92604 159.6554,115.78002 C 159.53857,115.634 159.48016,115.46365 159.48018,115.26896 L 159.48018,99.820323 C 159.48016,98.944236 159.39742,98.146008 159.23195,97.425638 C 159.06644,96.705305 158.81821,96.087165 158.48726,95.571217 C 158.15627,95.05531 157.72795,94.656197 157.20231,94.373875 C 156.67663,94.091597 156.06336,93.950447 155.36249,93.950424 C 154.4669,93.950447 153.57133,94.291154 152.67577,94.972546 C 151.78018,95.653981 150.81647,96.646898 149.78463,97.9513 L 149.78463,115.26896 C 149.78462,115.46365 149.72621,115.634 149.60941,115.78002 C 149.49258,115.92604 149.29302,116.04772 149.01073,116.14507 C 148.72842,116.24241 148.35365,116.31542 147.8864,116.36409 C 147.41914,116.41276 146.82533,116.4371 146.10499,116.4371 C 145.38463,116.4371 144.79083,116.41276 144.32358,116.36409 C 143.85632,116.31542 143.48154,116.24241 143.19924,116.14507 C 142.91694,116.04772 142.71738,115.92604 142.60057,115.78002 C 142.48375,115.634 142.42535,115.46365 142.42535,115.26896 L 142.42535,89.219462 C 142.42535,89.024799 142.47402,88.854446 142.57137,88.708401 C 142.66871,88.562411 142.84393,88.44073 143.09703,88.343357 C 143.35012,88.24604 143.67623,88.173032 144.07535,88.124331 C 144.47446,88.075687 144.97578,88.051351 145.57933,88.051323 C 146.20233,88.051351 146.71825,88.075687 147.12711,88.124331 C 147.53595,88.173032 147.85232,88.24604 148.07622,88.343357 C 148.30011,88.44073 148.46073,88.562411 148.55808,88.708401 C 148.65542,88.854446 148.70409,89.024799 148.7041,89.219462 L 148.7041,92.227419 C 150.14479,90.669926 151.58063,89.501789 153.01161,88.723002 C 154.44256,87.944271 155.93681,87.554892 157.49434,87.554864 C 158.56512,87.554892 159.52883,87.666839 160.38549,87.890703 C 161.2421,88.114625 162.00626,88.435863 162.67796,88.854418 C 163.34962,89.273028 163.92882,89.774354 164.41557,90.358397 C 164.90227,90.942492 165.31111,91.594702 165.64211,92.31503 C 166.42084,91.477888 167.185,90.757537 167.93459,90.153973 C 168.68411,89.550461 169.42393,89.05887 170.15405,88.679197 C 170.8841,88.29958 171.61419,88.01728 172.34431,87.832297 C 173.07436,87.64737 173.81905,87.554892 174.57838,87.554864 C 176.31108,87.554892 177.77125,87.846927 178.9589,88.430968 C 180.14646,89.015064 181.10531,89.808425 181.83544,90.811051 C 182.56548,91.813728 183.08628,92.986733 183.39783,94.33007 C 183.70928,95.67345 183.86504,97.094684 183.86508,98.593777 L 183.86508,115.26896 z M 217.36147,101.86457 C 217.36144,104.18139 217.11321,106.26943 216.61678,108.12871 C 216.12029,109.98801 215.39507,111.56986 214.44112,112.87428 C 213.48711,114.1787 212.29951,115.18135 210.87829,115.88223 C 209.45704,116.58312 207.83138,116.93356 206.00131,116.93356 C 205.24201,116.93356 204.54599,116.86055 203.91327,116.71453 C 203.28051,116.56852 202.66724,116.34462 202.07345,116.04285 C 201.47963,115.74108 200.89069,115.36631 200.30664,114.91852 C 199.72255,114.47073 199.11902,113.94507 198.49602,113.34153 L 198.49602,125.60699 C 198.49601,125.80167 198.4376,125.97689 198.3208,126.13265 C 198.20398,126.2884 198.00442,126.41981 197.72213,126.5269 C 197.43982,126.63397 197.06504,126.71671 196.5978,126.77513 C 196.13053,126.83353 195.53673,126.86273 194.81638,126.86274 C 194.09602,126.86273 193.50222,126.83353 193.03497,126.77513 C 192.56771,126.71671 192.19293,126.63397 191.91064,126.5269 C 191.62833,126.41981 191.42878,126.2884 191.31197,126.13265 C 191.19515,125.97689 191.13674,125.80167 191.13675,125.60699 L 191.13675,89.219462 C 191.13674,89.024799 191.18541,88.854446 191.28276,88.708401 C 191.3801,88.562411 191.55046,88.44073 191.79382,88.343357 C 192.03718,88.24604 192.35842,88.173032 192.75754,88.124331 C 193.15665,88.075687 193.65797,88.051351 194.26152,88.051323 C 194.84558,88.051351 195.33717,88.075687 195.73629,88.124331 C 196.1354,88.173032 196.45664,88.24604 196.70001,88.343357 C 196.94336,88.44073 197.11371,88.562411 197.21107,88.708401 C 197.3084,88.854446 197.35708,89.024799 197.35709,89.219462 L 197.35709,92.285826 C 198.11637,91.507092 198.86105,90.820811 199.59115,90.226981 C 200.32123,89.633204 201.06591,89.136746 201.82522,88.737604 C 202.58449,88.338518 203.36812,88.041616 204.1761,87.846898 C 204.98404,87.652237 205.84554,87.554892 206.7606,87.554864 C 208.66854,87.554892 210.2942,87.92967 211.63758,88.679197 C 212.98092,89.42878 214.07605,90.455768 214.92298,91.760164 C 215.76985,93.064609 216.38799,94.583188 216.7774,96.315906 C 217.16675,98.048664 217.36144,99.898215 217.36147,101.86457 L 217.36147,101.86457 z M 209.71016,102.39023 C 209.71013,101.28051 209.62739,100.21459 209.46193,99.192448 C 209.29642,98.170345 209.01412,97.260171 208.61503,96.461923 C 208.21589,95.663716 207.69023,95.026107 207.03804,94.549096 C 206.38581,94.072128 205.57298,93.833633 204.59955,93.833611 C 204.11281,93.833633 203.63095,93.906642 203.15398,94.052637 C 202.67697,94.198676 202.19025,94.437171 201.6938,94.768122 C 201.19733,95.099116 200.68627,95.527433 200.16062,96.053075 C 199.63494,96.578757 199.08008,97.230967 198.49602,98.009707 L 198.49602,106.59553 C 199.52787,107.89996 200.51105,108.90748 201.44557,109.61809 C 202.38007,110.32871 203.35352,110.68402 204.36592,110.68402 C 205.31988,110.68402 206.13271,110.44066 206.80441,109.95393 C 207.47607,109.46721 208.02607,108.8296 208.45441,108.0411 C 208.8827,107.25262 209.19907,106.36191 209.40352,105.36898 C 209.60792,104.37608 209.71013,103.38316 209.71016,102.39023 L 209.71016,102.39023 z M 241.60034,107.90969 C 241.60032,109.38933 241.32288,110.69376 240.76804,111.82295 C 240.21315,112.95216 239.42953,113.8964 238.41716,114.65569 C 237.40475,115.41498 236.20741,115.98445 234.82513,116.36409 C 233.44282,116.74374 231.94371,116.93356 230.3278,116.93356 C 229.35434,116.93356 228.42469,116.86055 227.53886,116.71453 C 226.65302,116.56852 225.85966,116.38356 225.15878,116.15967 C 224.45789,115.93577 223.87382,115.70701 223.40657,115.47339 C 222.93931,115.23976 222.59861,115.02073 222.38445,114.81631 C 222.17029,114.61188 222.0048,114.29065 221.88799,113.85259 C 221.77118,113.41454 221.71277,112.7672 221.71277,111.91056 C 221.71277,111.34597 221.73224,110.89331 221.77118,110.5526 C 221.81011,110.2119 221.86852,109.93933 221.9464,109.7349 C 222.02427,109.53048 222.12162,109.3942 222.23843,109.32605 C 222.35525,109.25792 222.50126,109.22385 222.67649,109.22384 C 222.89064,109.22385 223.20701,109.34553 223.6256,109.58889 C 224.04418,109.83225 224.56497,110.09995 225.18798,110.39198 C 225.81099,110.68402 226.53621,110.95659 227.36364,111.20968 C 228.19107,111.46278 229.13044,111.58933 230.18178,111.58932 C 230.84371,111.58933 231.43265,111.52119 231.94859,111.3849 C 232.4645,111.24862 232.91229,111.05393 233.29195,110.80083 C 233.67158,110.54774 233.95875,110.2265 234.15345,109.83711 C 234.34813,109.44774 234.44547,108.99996 234.44549,108.49375 C 234.44547,107.90969 234.26538,107.40837 233.90522,106.98978 C 233.54503,106.5712 233.06804,106.20616 232.47425,105.89465 C 231.88044,105.58315 231.20876,105.29112 230.45921,105.01854 C 229.70965,104.74599 228.94062,104.44422 228.15214,104.11323 C 227.36364,103.78227 226.59461,103.40263 225.84506,102.9743 C 225.0955,102.54599 224.42382,102.02033 223.83002,101.39731 C 223.23622,100.77432 222.75923,100.02476 222.39905,99.148643 C 222.03887,98.272557 221.85879,97.221233 221.85879,95.994668 C 221.85879,94.748674 222.10215,93.604873 222.58888,92.563259 C 223.0756,91.521694 223.77648,90.630988 224.69153,89.891141 C 225.60656,89.151347 226.72116,88.577013 228.03532,88.168136 C 229.34947,87.759316 230.82424,87.554892 232.45965,87.554864 C 233.27733,87.554892 234.07069,87.613299 234.83973,87.730084 C 235.60874,87.846927 236.30476,87.992944 236.92778,88.168136 C 237.55077,88.343385 238.07643,88.533208 238.50477,88.737604 C 238.93307,88.942056 239.2397,89.117277 239.42468,89.263267 C 239.60961,89.409311 239.74103,89.555328 239.81893,89.701319 C 239.89678,89.847363 239.95519,90.022583 239.99415,90.226981 C 240.03306,90.431432 240.06713,90.684528 240.09636,90.986272 C 240.12554,91.288066 240.14014,91.662844 240.14016,92.110606 C 240.14014,92.636292 240.12554,93.064609 240.09636,93.395558 C 240.06713,93.726554 240.01846,93.989385 239.95034,94.184052 C 239.88218,94.378764 239.7897,94.510179 239.67291,94.578299 C 239.55607,94.646462 239.41979,94.680533 239.26406,94.680511 C 239.08882,94.680533 238.81625,94.578321 238.44636,94.373875 C 238.07643,94.169473 237.61405,93.950447 237.0592,93.716797 C 236.50431,93.483192 235.86184,93.264166 235.13177,93.059718 C 234.40167,92.855318 233.56937,92.753105 232.63487,92.753082 C 231.97291,92.753105 231.39858,92.821247 230.91187,92.957506 C 230.42513,93.093812 230.02602,93.288502 229.71452,93.541576 C 229.40301,93.794695 229.16938,94.091597 229.01364,94.432282 C 228.85788,94.77301 228.78,95.138054 228.78001,95.527412 C 228.78,96.130971 228.96496,96.637164 229.33488,97.045993 C 229.70478,97.45486 230.1915,97.815036 230.79505,98.126521 C 231.39858,98.438043 232.08486,98.730077 232.8539,99.002626 C 233.62291,99.275208 234.40167,99.57211 235.19017,99.893331 C 235.97865,100.21459 236.75741,100.58936 237.52645,101.01767 C 238.29546,101.446 238.98174,101.97166 239.5853,102.59465 C 240.18882,103.21767 240.67554,103.96236 241.04547,104.82872 C 241.41536,105.6951 241.60032,106.72209 241.60034,107.90969 L 241.60034,107.90969 z M 286.98255,101.98138 C 286.98252,104.20086 286.69049,106.22563 286.10645,108.0557 C 285.52235,109.88579 284.63651,111.46278 283.44893,112.78667 C 282.2613,114.11056 280.77192,115.13268 278.9808,115.85303 C 277.18963,116.57338 275.09672,116.93356 272.70205,116.93356 C 270.38523,116.93356 268.37019,116.61232 266.65693,115.96984 C 264.94366,115.32737 263.52242,114.39286 262.39323,113.16631 C 261.26402,111.93977 260.42686,110.43092 259.88173,108.63977 C 259.33659,106.84864 259.06403,104.80439 259.06403,102.50704 C 259.06403,100.28759 259.36093,98.257955 259.95474,96.418118 C 260.54854,94.578321 261.43924,93.001335 262.62685,91.687155 C 263.81446,90.373025 265.29896,89.355771 267.08038,88.635392 C 268.86178,87.915068 270.94983,87.554892 273.34453,87.554864 C 275.68079,87.554892 277.70556,87.871263 279.41885,88.503976 C 281.1321,89.136746 282.54847,90.066389 283.66796,91.292908 C 284.7874,92.519478 285.61969,94.028323 286.16485,95.819447 C 286.70996,97.610612 286.98252,99.664588 286.98255,101.98138 L 286.98255,101.98138 z M 279.41885,102.27341 C 279.41883,100.98848 279.31662,99.805738 279.11222,98.725193 C 278.90777,97.644683 278.5622,96.705305 278.07549,95.907057 C 277.58875,95.10885 276.9414,94.485843 276.13346,94.038035 C 275.32548,93.590271 274.30823,93.366378 273.0817,93.366355 C 271.99142,93.366378 271.03744,93.565935 270.21976,93.965026 C 269.40205,94.364162 268.73037,94.948231 268.20472,95.717235 C 267.67904,96.486279 267.2848,97.411055 267.02198,98.491565 C 266.75914,99.57211 266.62772,100.80352 266.62773,102.1858 C 266.62772,103.47077 266.7348,104.65351 266.94897,105.73403 C 267.16312,106.81456 267.50869,107.75394 267.98569,108.55216 C 268.46267,109.3504 269.11001,109.96854 269.92772,110.40658 C 270.74541,110.84464 271.75779,111.06367 272.96488,111.06366 C 274.0746,111.06367 275.03831,110.86411 275.85603,110.46499 C 276.67371,110.06588 277.34539,109.48668 277.87107,108.72738 C 278.39671,107.9681 278.78609,107.04819 279.03921,105.96765 C 279.29228,104.88714 279.41883,103.65573 279.41885,102.27341 L 279.41885,102.27341 z M 316.74088,89.190258 C 316.74085,89.28763 316.73599,89.404444 316.72628,89.5407 C 316.71652,89.677009 316.69705,89.827894 316.66787,89.993354 C 316.63864,90.158866 316.5997,90.348688 316.55106,90.562821 C 316.50236,90.777006 316.43908,91.020368 316.36124,91.292908 L 308.5347,114.86011 C 308.43734,115.19109 308.30592,115.45878 308.14046,115.66321 C 307.97495,115.86763 307.70239,116.02825 307.32276,116.14507 C 306.9431,116.26188 306.42717,116.33975 305.77498,116.37869 C 305.12275,116.41763 304.27098,116.4371 303.21967,116.4371 C 302.1878,116.4371 301.34577,116.41276 300.69357,116.36409 C 300.04135,116.31542 299.53029,116.23268 299.16039,116.11586 C 298.79047,115.99905 298.52277,115.83843 298.35729,115.634 C 298.1918,115.42958 298.06038,115.17162 297.96305,114.86011 L 290.13652,91.292908 C 290.0197,90.903554 289.92722,90.553113 289.85908,90.241583 C 289.79094,89.930106 289.752,89.706213 289.74227,89.569903 C 289.73253,89.433647 289.72767,89.307099 289.72767,89.190258 C 289.72767,88.995596 289.78121,88.825242 289.88829,88.679197 C 289.99536,88.533208 290.18519,88.411527 290.45775,88.314154 C 290.73032,88.216837 291.1051,88.148696 291.58209,88.10973 C 292.05907,88.07082 292.65775,88.051351 293.3781,88.051323 C 294.17632,88.051351 294.8188,88.075687 295.30553,88.124331 C 295.79225,88.173032 296.17676,88.241173 296.45907,88.328756 C 296.74136,88.416394 296.94092,88.542942 297.05774,88.708401 C 297.17454,88.873914 297.27189,89.073471 297.34977,89.307072 L 303.27808,108.43535 L 303.4533,109.16543 L 303.62852,108.43535 L 309.46922,89.307072 C 309.5276,89.073471 309.62008,88.873914 309.74665,88.708401 C 309.87318,88.542942 310.07273,88.416394 310.34532,88.328756 C 310.61786,88.241173 310.98291,88.173032 311.44045,88.124331 C 311.89795,88.075687 312.49662,88.051351 313.23646,88.051323 C 313.95679,88.051351 314.54573,88.07082 315.00327,88.10973 C 315.46077,88.148696 315.81608,88.216837 316.0692,88.314154 C 316.32227,88.411527 316.49749,88.533208 316.59486,88.679197 C 316.69218,88.825242 316.74085,88.995596 316.74088,89.190258 L 316.74088,89.190258 z M 345.09744,101.48492 C 345.09741,102.38051 344.89786,103.04245 344.49877,103.47076 C 344.09963,103.89909 343.54963,104.11325 342.84877,104.11323 L 326.99129,104.11323 C 326.99128,105.22298 327.12269,106.2305 327.38554,107.13579 C 327.64836,108.04111 328.06694,108.81013 328.64128,109.44287 C 329.21561,110.07562 329.95543,110.55747 330.86075,110.88844 C 331.76604,111.21942 332.85144,111.3849 334.11694,111.3849 C 335.40187,111.3849 336.53107,111.29243 337.50454,111.10747 C 338.47797,110.92252 339.32,110.71809 340.03064,110.49419 C 340.74123,110.27031 341.33017,110.06588 341.79745,109.88092 C 342.26468,109.69597 342.64433,109.60349 342.93639,109.60349 C 343.11158,109.60349 343.2576,109.63756 343.37444,109.7057 C 343.49123,109.77385 343.58857,109.89553 343.66647,110.07074 C 343.74432,110.24597 343.79786,110.4942 343.82709,110.81543 C 343.85627,111.13667 343.87087,111.54066 343.8709,112.02738 C 343.87087,112.4557 343.86114,112.82074 343.84169,113.12251 C 343.8222,113.42428 343.79299,113.68224 343.75408,113.8964 C 343.71512,114.11056 343.65671,114.29065 343.57886,114.43666 C 343.50096,114.58268 343.39875,114.72383 343.27223,114.86011 C 343.14565,114.9964 342.80008,115.18135 342.2355,115.41498 C 341.67088,115.64861 340.95053,115.87737 340.07444,116.10126 C 339.19832,116.32515 338.19567,116.51984 337.06649,116.68533 C 335.93727,116.85082 334.73019,116.93356 333.44526,116.93356 C 331.12843,116.93356 329.09879,116.64152 327.35633,116.05745 C 325.61385,115.47339 324.15854,114.58755 322.99041,113.39994 C 321.82227,112.21233 320.95103,110.71322 320.3767,108.9026 C 319.80236,107.092 319.5152,104.96988 319.5152,102.53625 C 319.5152,100.21945 319.81697,98.131407 320.42051,96.272101 C 321.02404,94.412835 321.90014,92.835849 323.04882,91.541138 C 324.19748,90.246476 325.59438,89.258427 327.23952,88.576985 C 328.88464,87.895599 330.73905,87.554892 332.80278,87.554864 C 334.98329,87.554892 336.84744,87.87613 338.39525,88.518578 C 339.94301,89.161082 341.21336,90.051787 342.2063,91.190696 C 343.19919,92.329656 343.92928,93.677881 344.39656,95.235377 C 344.86379,96.792915 345.09741,98.486715 345.09744,100.31678 L 345.09744,101.48492 z M 337.97179,99.382271 C 338.03018,97.318577 337.61647,95.697786 336.73065,94.519892 C 335.84479,93.342042 334.4771,92.753105 332.62756,92.753082 C 331.69303,92.753105 330.8802,92.928326 330.18907,93.278745 C 329.49791,93.629209 328.92357,94.101331 328.46606,94.695113 C 328.00853,95.288938 327.65809,95.989821 327.41474,96.797763 C 327.17137,97.605745 327.03022,98.467246 326.99129,99.382271 L 337.97179,99.382271 z M 367.90537,91.64335 C 367.90535,92.344257 367.88588,92.918592 367.84696,93.366355 C 367.80801,93.814164 367.7496,94.164605 367.67174,94.41768 C 367.59385,94.670798 367.49163,94.846019 367.36511,94.943343 C 367.23854,95.040709 367.07792,95.089381 366.88325,95.08936 C 366.72748,95.089381 366.55226,95.05531 366.35759,94.987148 C 366.16288,94.919028 365.94385,94.846019 365.70051,94.768122 C 365.45713,94.690267 365.18943,94.617259 364.89741,94.549096 C 364.60536,94.480976 364.28412,94.446905 363.9337,94.446883 C 363.52483,94.446905 363.11599,94.529648 362.70715,94.695113 C 362.29829,94.860621 361.87484,95.118585 361.4368,95.469005 C 360.99874,95.819467 360.54121,96.286722 360.06424,96.870772 C 359.58724,97.45486 359.07618,98.175212 358.53106,99.031829 L 358.53106,115.26896 C 358.53104,115.46365 358.47264,115.634 358.35583,115.78002 C 358.23901,115.92604 358.03945,116.04772 357.75716,116.14507 C 357.47485,116.24241 357.10008,116.31542 356.63283,116.36409 C 356.16557,116.41276 355.57176,116.4371 354.85142,116.4371 C 354.13106,116.4371 353.53726,116.41276 353.07001,116.36409 C 352.60275,116.31542 352.22797,116.24241 351.94567,116.14507 C 351.66337,116.04772 351.46381,115.92604 351.347,115.78002 C 351.23018,115.634 351.17178,115.46365 351.17178,115.26896 L 351.17178,89.219462 C 351.17178,89.024799 351.22045,88.854446 351.3178,88.708401 C 351.41514,88.562411 351.59036,88.44073 351.84346,88.343357 C 352.09655,88.24604 352.42266,88.173032 352.82178,88.124331 C 353.22088,88.075687 353.72221,88.051351 354.32576,88.051323 C 354.94876,88.051351 355.46468,88.075687 355.87354,88.124331 C 356.28238,88.173032 356.59875,88.24604 356.82265,88.343357 C 357.04654,88.44073 357.20715,88.562411 357.30451,88.708401 C 357.40184,88.854446 357.45052,89.024799 357.45053,89.219462 L 357.45053,92.461047 C 358.13193,91.487623 358.77441,90.684528 359.37796,90.051761 C 359.98148,89.419045 360.55582,88.91772 361.10096,88.547782 C 361.64608,88.177899 362.19121,87.919935 362.73636,87.77389 C 363.28147,87.627901 363.8266,87.554892 364.37175,87.554864 C 364.62483,87.554892 364.8974,87.569494 365.18945,87.598669 C 365.48146,87.627901 365.78323,87.676573 366.09476,87.744686 C 366.40624,87.812856 366.67881,87.890732 366.91245,87.978314 C 367.14606,88.065953 367.31641,88.15843 367.42351,88.255747 C 367.53057,88.35312 367.60845,88.460199 367.65714,88.576985 C 367.70579,88.693827 367.7496,88.854446 367.78856,89.058842 C 367.82747,89.263294 367.85668,89.56993 367.87617,89.978752 C 367.89562,90.387626 367.90535,90.942492 367.90537,91.64335 L 367.90537,91.64335 z"
       id="text2384" />
    <path
       style="font-size:59.80871582px;font-style:italic;font-variant:normal;font-weight:normal;font-stretch:normal;text-align:start;line-height:125%;writing-mode:lr-tb;text-anchor:start;fill:#000000;fill-opacity:1;stroke:none;stroke-width:1px;stroke-linecap:butt;stroke-linejoin:miter;stroke-opacity:1;font-family:Calibri;-inkscape-font-specification:Calibri Italic"
       d="M 17.405271,174.98173 C 17.40525,175.15698 17.395515,175.3468 17.376067,175.5512 C 17.356578,175.75565 17.31764,175.96494 17.259253,176.17907 C 17.200826,176.39326 17.12295,176.60742 17.025625,176.82155 C 16.92826,177.03573 16.826048,177.22556 16.718989,177.39102 C 16.61189,177.55653 16.490209,177.68794 16.353946,177.78527 C 16.217643,177.88263 16.061891,177.93131 15.88669,177.93128 L 9.1698908,177.93128 L 6.2203399,192.59143 C 6.1424545,193.00028 6.0743131,193.45781 6.0159156,193.96399 C 5.9574994,194.47019 5.9282959,194.88877 5.9283051,195.21974 C 5.9282959,196.21266 6.1375873,196.93788 6.5561799,197.3954 C 6.9747527,197.85292 7.6512992,198.08168 8.5858213,198.08168 C 9.1114715,198.08168 9.5689921,198.03788 9.9583846,197.95026 C 10.347751,197.86266 10.68359,197.77018 10.965905,197.67283 C 11.24819,197.57549 11.496419,197.48301 11.710593,197.3954 C 11.924737,197.30779 12.109692,197.26399 12.265459,197.26398 C 12.421195,197.26399 12.542876,197.31753 12.630503,197.4246 C 12.718097,197.53169 12.761902,197.73124 12.761918,198.02327 C 12.761902,198.27637 12.737566,198.55381 12.68891,198.85557 C 12.640221,199.15734 12.576947,199.45425 12.499087,199.74628 C 12.421195,200.03831 12.32385,200.30115 12.207052,200.53477 C 12.090223,200.7684 11.963675,200.95336 11.827407,201.08964 C 11.67164,201.22592 11.438013,201.3622 11.126524,201.49849 C 10.815006,201.63477 10.45483,201.75645 10.045995,201.86353 C 9.6371335,201.97061 9.203949,202.05335 8.7464404,202.11176 C 8.2889078,202.17017 7.8362543,202.19937 7.3884789,202.19937 C 6.2982062,202.19937 5.3539615,202.08256 4.5557418,201.84893 C 3.7575065,201.6153 3.0858272,201.25026 2.5407021,200.7538 C 1.9955653,200.25734 1.5915843,199.63433 1.3287579,198.88478 C 1.0659223,198.13522 0.93450677,197.23478 0.93451101,196.18345 C 0.93450677,195.94983 0.94424125,195.69187 0.96371448,195.40956 C 0.98317918,195.12727 1.0172499,194.83037 1.0659266,194.51886 C 1.1145947,194.20736 1.1632671,193.89586 1.211944,193.58435 C 1.2606119,193.27285 1.3141516,192.98082 1.3725631,192.70824 L 4.3221141,177.93128 L 0.67167974,177.93128 C 0.45751716,177.93131 0.29203097,177.86803 0.17522067,177.74146 C 0.058403412,177.61494 -3.4788066e-06,177.36671 -1.7881393e-07,176.99677 C -3.4788066e-06,176.72423 0.029199967,176.40786 0.087610245,176.04766 C 0.14601375,175.68751 0.23362408,175.35167 0.35044152,175.04014 C 0.46725165,174.72866 0.61813611,174.46583 0.80309537,174.25165 C 0.98804642,174.03751 1.2070723,173.93043 1.4601735,173.93041 L 5.1398113,173.93041 L 6.3955607,167.68086 C 6.41502,167.54461 6.4782941,167.41807 6.5853833,167.30122 C 6.6924527,167.18444 6.8433372,167.08223 7.0380372,166.99458 C 7.2327165,166.90701 7.4906802,166.84373 7.8119293,166.80476 C 8.133156,166.76586 8.5274026,166.74639 8.99467,166.74635 C 9.4619128,166.74639 9.8464248,166.76586 10.148207,166.80476 C 10.449963,166.84373 10.68359,166.90701 10.849091,166.99458 C 11.014563,167.08223 11.121642,167.18444 11.170329,167.30122 C 11.218987,167.41807 11.233588,167.54461 11.214134,167.68086 L 9.9583846,173.93041 L 16.675184,173.93041 C 16.967198,173.93043 17.161888,174.03751 17.259253,174.25165 C 17.356578,174.46583 17.40525,174.70919 17.405271,174.98173 L 17.405271,174.98173 z M 40.651237,200.97282 C 40.612276,201.12858 40.544134,201.25999 40.446813,201.36707 C 40.349445,201.47415 40.19856,201.56663 39.994159,201.6445 C 39.789712,201.72238 39.531748,201.78079 39.220267,201.81973 C 38.908741,201.85866 38.509627,201.87813 38.022925,201.87813 C 37.555648,201.87813 37.171136,201.85866 36.869387,201.81973 C 36.567598,201.78079 36.333971,201.72238 36.168504,201.6445 C 36.002998,201.56663 35.895919,201.47415 35.847266,201.36707 C 35.798574,201.25999 35.783973,201.12858 35.803461,200.97282 L 39.045046,184.73569 C 39.142369,184.22952 39.225112,183.66005 39.293276,183.02729 C 39.361395,182.39457 39.395465,181.84457 39.395488,181.37729 C 39.395465,180.81271 39.337058,180.29679 39.220267,179.82951 C 39.103431,179.36228 38.913608,178.95829 38.650799,178.61756 C 38.387946,178.27688 38.04724,178.00918 37.628678,177.81447 C 37.210074,177.6198 36.699014,177.52246 36.095495,177.52243 C 35.063621,177.52246 34.00743,177.82423 32.926918,178.42774 C 31.846375,179.0313 30.843723,179.8636 29.91896,180.92464 C 28.994172,181.98572 28.166741,183.2366 27.436665,184.67729 C 26.706568,186.11801 26.176039,187.66579 25.845076,189.32064 L 23.508798,200.97282 C 23.469853,201.12858 23.401712,201.25999 23.304373,201.36707 C 23.207022,201.47415 23.061005,201.56663 22.866321,201.6445 C 22.671626,201.72238 22.413662,201.78079 22.092429,201.81973 C 21.771186,201.85866 21.37694,201.87813 20.909689,201.87813 C 20.42296,201.87813 20.028714,201.85866 19.726948,201.81973 C 19.425176,201.78079 19.191548,201.72238 19.026064,201.6445 C 18.860576,201.56663 18.753497,201.47415 18.704826,201.36707 C 18.656152,201.25999 18.651285,201.12858 18.690224,200.97282 L 26.458349,161.95698 C 26.497277,161.80127 26.560551,161.66499 26.648171,161.54813 C 26.735772,161.43136 26.881789,161.33402 27.086223,161.2561 C 27.290637,161.17826 27.553468,161.11986 27.874717,161.08088 C 28.195944,161.04198 28.599925,161.02251 29.086661,161.02247 C 29.553904,161.02251 29.938416,161.04198 30.240199,161.08088 C 30.541954,161.11986 30.775582,161.17826 30.941082,161.2561 C 31.106554,161.33402 31.208766,161.43136 31.247719,161.54813 C 31.286642,161.66499 31.296376,161.80127 31.276922,161.95698 L 28.940644,173.8428 C 28.843287,174.34902 28.726473,174.86495 28.590202,175.39058 C 28.453908,175.91627 28.312758,176.43706 28.166752,176.95297 C 28.020723,177.46892 27.874706,177.96051 27.7287,178.42774 C 27.582672,178.89502 27.451256,179.30387 27.334453,179.65429 C 27.645946,178.9729 28.13267,178.26715 28.794627,177.53704 C 29.456559,176.80697 30.235318,176.1353 31.130905,175.522 C 32.026463,174.90875 33.014512,174.39769 34.095057,173.98881 C 35.175567,173.57999 36.290166,173.37557 37.438855,173.37554 C 38.684848,173.37557 39.745907,173.55566 40.622034,173.91581 C 41.498113,174.27601 42.213598,174.77247 42.768489,175.40518 C 43.323329,176.03795 43.72731,176.79237 43.980433,177.66845 C 44.233503,178.54458 44.360051,179.48882 44.360079,180.50119 C 44.360051,181.20209 44.321113,181.88351 44.243265,182.54543 C 44.165361,183.2074 44.058282,183.87908 43.922026,184.56047 L 40.651237,200.97282 z M 74.52727,180.06314 C 74.527243,181.40652 74.215739,182.61359 73.592759,183.68437 C 72.969726,184.75518 71.996278,185.67022 70.672411,186.42949 C 69.348499,187.1888 67.654699,187.77287 65.591007,188.1817 C 63.527278,188.59056 61.05472,188.79499 58.173324,188.79498 L 55.077756,188.79498 C 54.941466,189.43746 54.848988,190.06047 54.800323,190.664 C 54.751643,191.26755 54.727307,191.83215 54.727314,192.3578 C 54.727307,194.30471 55.209164,195.79408 56.172886,196.82593 C 57.136591,197.85779 58.698976,198.37372 60.860044,198.37372 C 62.106044,198.37372 63.22551,198.28124 64.218443,198.09628 C 65.211344,197.91133 66.072845,197.71177 66.802951,197.49761 C 67.533018,197.28346 68.131688,197.0839 68.598965,196.89894 C 69.066199,196.71399 69.387437,196.62151 69.562679,196.62151 C 69.737878,196.62151 69.869293,196.68479 69.956926,196.81133 C 70.044514,196.93788 70.088319,197.11797 70.088342,197.35159 C 70.088319,197.54629 70.06885,197.77992 70.029935,198.05248 C 69.990974,198.32505 69.932567,198.60248 69.854714,198.88478 C 69.776816,199.16708 69.674604,199.43478 69.548077,199.68787 C 69.421507,199.94097 69.280357,200.15513 69.124627,200.33035 C 68.890978,200.56398 68.477262,200.79274 67.883479,201.01663 C 67.289656,201.24052 66.583906,201.44495 65.766228,201.6299 C 64.948513,201.81486 64.05294,201.96574 63.079508,202.08256 C 62.106044,202.19937 61.132596,202.25778 60.15916,202.25778 C 58.42641,202.25778 56.907831,202.06309 55.603418,201.67371 C 54.29899,201.28433 53.213595,200.68566 52.347231,199.87769 C 51.480857,199.06973 50.833514,198.06222 50.4052,196.85513 C 49.97688,195.64806 49.762721,194.22683 49.762724,192.59143 C 49.762721,191.32595 49.884402,189.96799 50.127767,188.51754 C 50.371126,187.06712 50.755638,185.63128 51.281304,184.21003 C 51.806962,182.78881 52.488376,181.42599 53.325547,180.12154 C 54.162707,178.81714 55.160491,177.66848 56.318904,176.67553 C 57.477298,175.68264 58.815789,174.88441 60.334381,174.28085 C 61.852948,173.67734 63.566216,173.37557 65.474193,173.37554 C 67.109568,173.37557 68.496731,173.57999 69.635688,173.98881 C 70.7746,174.39769 71.70911,174.92335 72.439221,175.5658 C 73.169283,176.2083 73.699812,176.92379 74.030811,177.71226 C 74.361757,178.50077 74.527243,179.2844 74.52727,180.06314 L 74.52727,180.06314 z M 69.591883,180.50119 C 69.591861,179.50829 69.202481,178.7052 68.423744,178.0919 C 67.644964,177.47865 66.535233,177.17202 65.094548,177.17199 C 63.829047,177.17202 62.709582,177.39104 61.736148,177.82907 C 60.762686,178.26715 59.901184,178.85608 59.151641,179.59588 C 58.402074,180.33572 57.759598,181.19723 57.224211,182.18039 C 56.688805,183.16359 56.255621,184.20031 55.924657,185.29056 L 58.903411,185.29056 C 60.947641,185.29058 62.656042,185.16403 64.028621,184.91091 C 65.401166,184.65783 66.501163,184.31226 67.328613,183.87419 C 68.156025,183.43616 68.740093,182.9251 69.080822,182.34101 C 69.421507,181.75696 69.591861,181.14369 69.591883,180.50119 L 69.591883,180.50119 z M 96.40067,200.97282 C 96.361726,201.12858 96.293584,201.25999 96.196246,201.36707 C 96.098895,201.47415 95.952877,201.56663 95.758194,201.6445 C 95.563498,201.72238 95.305534,201.78079 94.984302,201.81973 C 94.663058,201.85866 94.268812,201.87813 93.801561,201.87813 C 93.314833,201.87813 92.920586,201.85866 92.61882,201.81973 C 92.317048,201.78079 92.083421,201.72238 91.917937,201.6445 C 91.752448,201.56663 91.645369,201.47415 91.596699,201.36707 C 91.548024,201.25999 91.543157,201.12858 91.582097,200.97282 L 99.350221,161.95698 C 99.389149,161.80127 99.452423,161.66499 99.540044,161.54813 C 99.627644,161.43136 99.773661,161.33402 99.978096,161.2561 C 100.18251,161.17826 100.44534,161.11986 100.76659,161.08088 C 101.08782,161.04198 101.4918,161.02251 101.97853,161.02247 C 102.44578,161.02251 102.83029,161.04198 103.13207,161.08088 C 103.43383,161.11986 103.66745,161.17826 103.83295,161.2561 C 103.99843,161.33402 104.10064,161.43136 104.13959,161.54813 C 104.17851,161.66499 104.18825,161.80127 104.16879,161.95698 L 96.40067,200.97282 z M 127.18113,200.97282 C 127.10324,201.3038 126.88908,201.53743 126.53866,201.67371 C 126.18819,201.80999 125.60412,201.87813 124.78645,201.87813 C 124.39705,201.87813 124.07581,201.85866 123.82274,201.81973 C 123.56962,201.78079 123.36519,201.72725 123.20946,201.65911 C 123.05369,201.59096 122.94661,201.50335 122.88822,201.39627 C 122.8298,201.2892 122.8298,201.14805 122.88822,200.97282 L 123.85194,196.00823 C 123.59882,196.63125 123.1413,197.31266 122.47938,198.05248 C 121.81741,198.7923 121.03379,199.47372 120.1285,200.09672 C 119.22317,200.71973 118.21565,201.23566 117.10594,201.6445 C 115.99619,202.05335 114.86699,202.25778 113.71833,202.25778 C 112.16081,202.25778 110.87099,201.98521 109.84887,201.44008 C 108.82675,200.89495 108.01392,200.1746 107.41038,199.27902 C 106.80684,198.38345 106.39313,197.37107 106.16923,196.24186 C 105.94534,195.11267 105.83339,193.95426 105.83339,192.76665 C 105.83339,191.6764 105.9356,190.44012 106.14003,189.05781 C 106.34445,187.67552 106.67543,186.26402 107.13295,184.8233 C 107.59047,183.38262 108.18427,181.98085 108.91436,180.618 C 109.64444,179.2552 110.52541,178.03352 111.55728,176.95297 C 112.58912,175.87246 113.78646,175.0061 115.1493,174.35386 C 116.51212,173.70167 118.0599,173.37557 119.79266,173.37554 C 121.52538,173.37557 123.00989,173.72601 124.24619,174.42687 C 125.48244,175.12778 126.58731,176.09149 127.56078,177.31801 L 128.11565,174.66049 C 128.1935,174.34902 128.41739,174.12512 128.78733,173.98881 C 129.15721,173.85256 129.73155,173.78442 130.51033,173.78439 C 130.89968,173.78442 131.22579,173.79902 131.48865,173.82819 C 131.75145,173.85743 131.96074,173.91097 132.11652,173.98881 C 132.27224,174.06672 132.36959,174.16406 132.40856,174.28085 C 132.44747,174.39769 132.4572,174.52424 132.43776,174.66049 L 127.18113,200.97282 z M 126.27583,181.55251 C 125.36076,180.20918 124.37271,179.20166 123.31167,178.52995 C 122.2506,177.8583 121.05812,177.52246 119.73425,177.52243 C 118.68291,177.52246 117.7338,177.77069 116.88691,178.26712 C 116.04,178.76361 115.29044,179.42068 114.63824,180.23836 C 113.98602,181.05608 113.42142,181.98572 112.94444,183.02729 C 112.46744,184.0689 112.07806,185.14456 111.7763,186.25427 C 111.47452,187.36402 111.25063,188.45428 111.10462,189.52506 C 110.9586,190.59587 110.88559,191.55958 110.8856,192.41621 C 110.88559,193.09763 110.93913,193.77418 111.04622,194.44585 C 111.15329,195.11753 111.35771,195.73081 111.65949,196.28567 C 111.96125,196.84054 112.37496,197.28832 112.90064,197.62903 C 113.42629,197.96974 114.1077,198.14009 114.94488,198.14009 C 116.01566,198.14009 117.09132,197.84319 118.17186,197.24938 C 119.25238,196.65558 120.25989,195.83302 121.19442,194.78169 C 122.12891,193.73037 122.95635,192.49409 123.67672,191.07285 C 124.39705,189.65162 124.93245,188.08437 125.28291,186.37109 L 126.27583,181.55251 z M 157.1731,174.92333 C 157.17308,175.0207 157.16334,175.16185 157.1439,175.34678 C 157.12441,175.53176 157.0952,175.72645 157.05629,175.93085 C 157.01733,176.1353 156.97839,176.33972 156.93947,176.54412 C 156.90051,176.74857 156.86157,176.91892 156.82266,177.05518 C 156.70582,177.48352 156.52574,177.8875 156.2824,178.26712 C 156.03901,178.64679 155.70317,179.08971 155.27488,179.59588 L 140.41031,197.64363 L 152.47134,197.64363 C 152.70495,197.64363 152.88017,197.73124 152.997,197.90646 C 153.1138,198.08168 153.17221,198.33478 153.17223,198.66575 C 153.17221,198.8215 153.16247,199.00646 153.14302,199.22062 C 153.12353,199.43478 153.0846,199.64894 153.02621,199.86309 C 152.96778,200.07725 152.89964,200.29628 152.82178,200.52017 C 152.74389,200.74406 152.64654,200.94362 152.52975,201.11884 C 152.41292,201.29406 152.28637,201.43521 152.1501,201.54229 C 152.0138,201.64937 151.85805,201.70291 151.68285,201.70291 L 135.41651,201.70291 C 135.0466,201.70291 134.77404,201.6007 134.59882,201.39627 C 134.42359,201.19185 134.33598,200.91442 134.33598,200.56398 C 134.33598,200.42769 134.35545,200.25247 134.39439,200.03831 C 134.43333,199.82416 134.47227,199.60513 134.51121,199.38124 C 134.55014,199.15734 134.59395,198.94805 134.64262,198.75336 C 134.69129,198.55867 134.7351,198.41266 134.77404,198.31531 C 134.81297,198.15956 134.86165,198.01841 134.92005,197.89186 C 134.97846,197.76531 135.06607,197.6193 135.18289,197.45381 C 135.2997,197.28832 135.44572,197.08877 135.62094,196.85513 C 135.79616,196.62151 136.01032,196.34895 136.26341,196.03744 L 151.21559,177.98969 L 140.23509,177.98969 C 139.98198,177.98971 139.79216,177.90697 139.66562,177.74146 C 139.53906,177.576 139.47579,177.31803 139.4758,176.96757 C 139.47579,176.79237 139.49039,176.59768 139.5196,176.3835 C 139.5488,176.16937 139.58774,175.95034 139.63641,175.72642 C 139.68508,175.50255 139.75322,175.27866 139.84084,175.05474 C 139.92844,174.83087 140.03066,174.63618 140.14748,174.47067 C 140.26428,174.30521 140.3957,174.1738 140.54172,174.07642 C 140.68773,173.97911 140.84835,173.93043 141.02358,173.93041 L 156.18018,173.93041 C 156.55007,173.93043 156.80804,174.01805 156.95408,174.19324 C 157.10007,174.36849 157.17308,174.61185 157.1731,174.92333 L 157.1731,174.92333 z M 184.97481,174.48527 C 184.97478,174.69946 184.95531,174.91848 184.9164,175.14235 C 184.87743,175.36627 184.80929,175.57556 184.71198,175.77023 C 184.06947,177.54193 183.36859,179.38661 182.60933,181.30428 C 181.85001,183.222 180.96417,185.2273 179.95181,187.3202 C 178.9394,189.41313 177.75666,191.59852 176.40359,193.87638 C 175.05048,196.15426 173.43942,198.54894 171.57041,201.06043 L 164.00671,211.36926 C 163.88989,211.525 163.74387,211.66129 163.56866,211.77811 C 163.39343,211.89491 163.17927,211.99713 162.92618,212.08475 C 162.67308,212.17235 162.36645,212.23562 162.00627,212.27457 C 161.64609,212.3135 161.22264,212.33297 160.73592,212.33298 C 160.21026,212.33297 159.77707,212.30863 159.43637,212.25997 C 159.09566,212.21128 158.8377,212.12854 158.66248,212.01174 C 158.48725,211.89491 158.40938,211.73916 158.42885,211.54448 C 158.44832,211.34978 158.56513,211.11616 158.77929,210.8436 L 165.90494,201.70291 L 161.55362,176.03306 C 161.51468,175.79946 161.48548,175.5853 161.46601,175.39058 C 161.44654,175.19592 161.4368,175.03043 161.43681,174.89412 C 161.4368,174.67999 161.47087,174.4999 161.53902,174.35386 C 161.60716,174.20787 161.73857,174.09105 161.93327,174.00342 C 162.12795,173.91583 162.38591,173.85743 162.70716,173.82819 C 163.02839,173.79902 163.42264,173.78442 163.8899,173.78439 C 164.41555,173.78442 164.82927,173.79902 165.13105,173.82819 C 165.43281,173.85743 165.66643,173.9061 165.83193,173.97421 C 165.99741,174.04238 166.11422,174.14459 166.18237,174.28085 C 166.2505,174.41716 166.29431,174.58265 166.31379,174.77731 L 169.73059,196.21266 L 169.789,196.21266 C 170.99606,194.51886 172.08633,192.79586 173.05979,191.04364 C 174.03322,189.29145 174.92879,187.5149 175.74651,185.71401 C 176.56419,183.91315 177.31861,182.0928 178.00978,180.25296 C 178.70091,178.41316 179.34825,176.54901 179.95181,174.66049 C 179.99072,174.50477 180.06373,174.37335 180.17084,174.26625 C 180.27789,174.1592 180.43364,174.06672 180.63809,173.98881 C 180.84249,173.91097 181.11992,173.85743 181.47039,173.82819 C 181.82081,173.79902 182.25886,173.78442 182.78455,173.78439 C 183.66062,173.78442 184.24469,173.84282 184.53675,173.95961 C 184.82876,174.07645 184.97478,174.25167 184.97481,174.48527 L 184.97481,174.48527 z M 221.82959,200.97282 C 221.77116,201.3038 221.56674,201.53743 221.21632,201.67371 C 220.86586,201.80999 220.28179,201.87813 219.46411,201.87813 C 219.05524,201.87813 218.72427,201.85866 218.47119,201.81973 C 218.21808,201.78079 218.01365,201.72725 217.85792,201.65911 C 217.70215,201.59096 217.59994,201.50335 217.55128,201.39627 C 217.50259,201.2892 217.49773,201.14805 217.53668,200.97282 L 218.47119,196.06664 C 218.21808,196.70912 217.76056,197.3954 217.09863,198.12549 C 216.43667,198.85558 215.65304,199.52725 214.74775,200.14053 C 213.84243,200.7538 212.83491,201.25999 211.72519,201.65911 C 210.61545,202.05822 209.48625,202.25778 208.33759,202.25778 C 207.18891,202.25778 206.19112,202.10689 205.34423,201.80512 C 204.49732,201.50335 203.78671,201.09937 203.21238,200.59318 C 202.63804,200.08699 202.17078,199.49805 201.81061,198.82637 C 201.45043,198.15469 201.16813,197.46354 200.96371,196.75292 C 200.75928,196.04231 200.623,195.32683 200.55486,194.60647 C 200.48672,193.88612 200.45265,193.22418 200.45265,192.62063 C 200.45265,191.49144 200.55973,190.22596 200.77389,188.82418 C 200.98804,187.42243 201.32875,186.01579 201.79601,184.60428 C 202.26326,183.19279 202.86193,181.8105 203.59202,180.45738 C 204.3221,179.10431 205.20307,177.90697 206.23494,176.86536 C 207.26678,175.82379 208.45926,174.98176 209.81236,174.33926 C 211.16544,173.69681 212.69863,173.37557 214.41191,173.37554 C 215.24906,173.37557 216.03755,173.46805 216.77739,173.65297 C 217.51719,173.83796 218.18887,174.09105 218.79243,174.41226 C 219.39595,174.73353 219.95081,175.11804 220.45703,175.5658 C 220.9632,176.01361 221.42072,176.48087 221.82959,176.96757 L 224.80835,162.0738 C 224.82779,161.93755 224.8862,161.80614 224.98357,161.67955 C 225.08089,161.55304 225.2269,161.4557 225.42162,161.38751 C 225.61628,161.31941 225.86938,161.26101 226.18091,161.21229 C 226.49239,161.16366 226.8915,161.13933 227.37825,161.13929 C 227.84548,161.13933 228.22999,161.16366 228.53179,161.21229 C 228.83353,161.26101 229.07202,161.31941 229.24728,161.38751 C 229.42247,161.4557 229.53441,161.55304 229.58312,161.67955 C 229.63176,161.80614 229.63662,161.93755 229.59772,162.0738 L 221.82959,200.97282 z M 220.89508,181.64012 C 219.98002,180.29679 218.99197,179.27467 217.93093,178.57376 C 216.86985,177.8729 215.67738,177.52246 214.3535,177.52243 C 213.32163,177.52246 212.39199,177.76095 211.56457,178.23792 C 210.73713,178.71493 209.99244,179.35254 209.33051,180.15075 C 208.66855,180.949 208.09908,181.86404 207.6221,182.89587 C 207.1451,183.92775 206.75086,184.99367 206.43936,186.09365 C 206.12785,187.19367 205.89422,188.27906 205.73848,189.34984 C 205.58272,190.42065 205.50484,191.40383 205.50485,192.29939 C 205.50484,194.18789 205.82608,195.63346 206.46857,196.63611 C 207.11103,197.63877 208.14289,198.14009 209.56413,198.14009 C 210.63492,198.14009 211.71058,197.84806 212.79112,197.26398 C 213.87163,196.67992 214.87915,195.87196 215.81368,194.84009 C 216.74817,193.80825 217.5756,192.5817 218.29597,191.16046 C 219.0163,189.73923 219.5517,188.18172 219.90216,186.4879 L 220.89508,181.64012 z M 257.34102,183.39233 C 257.341,184.83305 257.20471,186.30296 256.93218,187.80206 C 256.65958,189.30118 256.24587,190.74675 255.69103,192.13877 C 255.13614,193.53081 254.43039,194.8401 253.57378,196.06664 C 252.71712,197.29319 251.7096,198.36398 250.55122,199.27902 C 249.39279,200.19407 248.07864,200.91929 246.60875,201.45468 C 245.13882,201.99008 243.49856,202.25778 241.68796,202.25778 C 239.81893,202.25778 238.21761,202.03388 236.88399,201.5861 C 235.55036,201.13831 234.45523,200.4861 233.5986,199.62946 C 232.74196,198.77283 232.10922,197.72151 231.70037,196.47549 C 231.29152,195.22948 231.0871,193.81798 231.0871,192.24099 C 231.0871,190.80029 231.21851,189.33039 231.48135,187.83126 C 231.74418,186.33216 232.15789,184.89146 232.7225,183.50915 C 233.28709,182.12687 233.99284,180.81758 234.83975,179.58128 C 235.68664,178.34502 236.68929,177.26936 237.8477,176.3543 C 239.0061,175.43928 240.32025,174.71406 241.79017,174.17864 C 243.26007,173.64327 244.90033,173.37557 246.71096,173.37554 C 248.57996,173.37557 250.18128,173.60433 251.51493,174.06182 C 252.84853,174.51937 253.94853,175.17645 254.81492,176.03306 C 255.68127,176.88972 256.31888,177.94104 256.72775,179.18703 C 257.13657,180.43307 257.341,181.83483 257.34102,183.39233 L 257.34102,183.39233 z M 252.25962,183.68437 C 252.2596,182.71094 252.15738,181.83483 251.95298,181.05605 C 251.74854,180.27732 251.40783,179.62024 250.93086,179.08482 C 250.45385,178.54945 249.83084,178.13573 249.06184,177.84367 C 248.29279,177.55166 247.36315,177.40564 246.27291,177.40562 C 245.10475,177.40564 244.04369,177.61494 243.08973,178.0335 C 242.13574,178.4521 241.28397,179.0167 240.53442,179.7273 C 239.78486,180.43794 239.13265,181.27023 238.57779,182.22419 C 238.02292,183.17819 237.5654,184.19545 237.20523,185.27596 C 236.84504,186.3565 236.57735,187.46623 236.40213,188.60515 C 236.2269,189.7441 236.13929,190.8587 236.1393,191.94895 C 236.13929,192.92241 236.24637,193.79851 236.46054,194.57726 C 236.67469,195.35603 237.02026,196.01797 237.49726,196.5631 C 237.97424,197.10824 238.59238,197.52682 239.35168,197.81885 C 240.11096,198.11089 241.03574,198.2569 242.12601,198.2569 C 243.31361,198.2569 244.37953,198.04761 245.32379,197.62903 C 246.26802,197.21045 247.11492,196.64098 247.8645,195.92062 C 248.61403,195.20028 249.26624,194.36311 249.82113,193.40912 C 250.37597,192.45515 250.83349,191.43303 251.19369,190.34276 C 251.55385,189.25251 251.82154,188.14278 251.99679,187.01356 C 252.17199,185.88438 252.2596,184.77465 252.25962,183.68437 L 252.25962,183.68437 z M 282.80644,203.04627 C 282.49492,204.60379 281.99359,205.96661 281.30247,207.13476 C 280.6113,208.30289 279.73033,209.27147 278.65955,210.0405 C 277.58874,210.80952 276.31839,211.38872 274.8485,211.77811 C 273.37858,212.16748 271.70911,212.36217 269.8401,212.36218 C 268.22417,212.36217 266.74939,212.20155 265.41578,211.88032 C 264.08215,211.55907 263.01622,211.17456 262.218,210.72679 C 261.92596,210.53209 261.7264,210.34226 261.61932,210.15732 C 261.51224,209.97235 261.4587,209.73386 261.4587,209.44183 C 261.4587,209.32501 261.46357,209.15952 261.47331,208.94537 C 261.48304,208.73121 261.51224,208.51705 261.56092,208.3029 C 261.60959,208.08873 261.66799,207.86484 261.73614,207.63122 C 261.80428,207.39758 261.89189,207.18829 261.99897,207.00334 C 262.10605,206.81838 262.23746,206.67236 262.39322,206.56529 C 262.54896,206.45821 262.71445,206.40467 262.88968,206.40467 C 263.1233,206.40467 263.41533,206.50688 263.76578,206.71131 C 264.11622,206.91573 264.58347,207.14449 265.16755,207.39759 C 265.75161,207.65068 266.47683,207.88431 267.3432,208.09847 C 268.20957,208.31262 269.27549,208.4197 270.54099,208.41971 C 271.5923,208.4197 272.54141,208.31262 273.38832,208.09847 C 274.23521,207.88431 274.97503,207.56307 275.60779,207.13476 C 276.24051,206.70644 276.75644,206.1613 277.15557,205.49936 C 277.55467,204.83741 277.85157,204.04892 278.04628,203.13388 C 278.37723,201.3622 278.7082,199.8923 279.0392,198.72416 C 279.37015,197.55602 279.64271,196.65072 279.85689,196.00823 C 279.54537,196.72859 279.04891,197.45381 278.36752,198.18389 C 277.68608,198.91398 276.89759,199.58566 276.00204,200.19893 C 275.10645,200.81221 274.12326,201.30866 273.05248,201.68831 C 271.98168,202.06795 270.89142,202.25778 269.7817,202.25778 C 268.32151,202.25778 267.08523,202.01441 266.07285,201.52769 C 265.06046,201.04097 264.24763,200.37415 263.63436,199.52725 C 263.02109,198.68035 262.57817,197.6777 262.30561,196.51929 C 262.03304,195.3609 261.89675,194.11002 261.89676,192.76665 C 261.89675,191.63746 262.00383,190.36711 262.218,188.95559 C 262.43215,187.54411 262.77286,186.12287 263.24012,184.69189 C 263.70737,183.26094 264.30604,181.8689 265.03613,180.51579 C 265.76621,179.16272 266.64718,177.95564 267.67904,176.89456 C 268.71089,175.83353 269.90337,174.98176 271.25647,174.33926 C 272.60955,173.69681 274.14273,173.37557 275.85602,173.37554 C 277.58874,173.37557 279.07325,173.72601 280.30955,174.42687 C 281.54581,175.12778 282.65067,176.09149 283.62414,177.31801 L 284.17901,174.66049 C 284.25686,174.34902 284.48075,174.12512 284.85069,173.98881 C 285.22057,173.85256 285.79491,173.78442 286.57369,173.78439 C 286.96305,173.78442 287.28915,173.79902 287.55201,173.82819 C 287.81481,173.85743 288.0241,173.91097 288.17988,173.98881 C 288.33561,174.06672 288.43295,174.16406 288.47192,174.28085 C 288.51083,174.39769 288.52056,174.52424 288.50112,174.66049 L 282.80644,203.04627 z M 282.33919,181.55251 C 281.42413,180.20918 280.43608,179.20166 279.37504,178.52995 C 278.31396,177.8583 277.12148,177.52246 275.79761,177.52243 C 274.74627,177.52246 273.80203,177.76582 272.96487,178.25252 C 272.12769,178.73927 271.38301,179.38661 270.73081,180.19455 C 270.07859,181.00254 269.50912,181.93218 269.0224,182.98348 C 268.53567,184.03483 268.14142,185.11049 267.83966,186.21047 C 267.53789,187.31048 267.31399,188.40074 267.16798,189.48126 C 267.02196,190.5618 266.94895,191.54011 266.94896,192.41621 C 266.94895,193.25338 267.02196,194.02241 267.16798,194.72328 C 267.31399,195.42417 267.54762,196.02284 267.86887,196.51929 C 268.1901,197.01576 268.60868,197.41 269.12462,197.70204 C 269.64053,197.99407 270.26841,198.14009 271.00824,198.14009 C 272.07902,198.14009 273.15468,197.84319 274.23522,197.24938 C 275.31574,196.65558 276.32326,195.83302 277.25778,194.78169 C 278.19228,193.73037 279.01971,192.48922 279.74008,191.05824 C 280.46041,189.62729 280.99581,188.0649 281.34627,186.37109 L 282.33919,181.55251 z M 298.95599,197.23478 C 298.95598,197.50735 298.93164,197.82859 298.88298,198.19849 C 298.8343,198.56841 298.76129,198.94805 298.66395,199.33743 C 298.5666,199.72681 298.44492,200.08699 298.29891,200.41796 C 298.15288,200.74893 297.96306,201.03123 297.72944,201.26486 C 297.49581,201.49849 297.16483,201.67371 296.73652,201.79052 C 296.3082,201.90734 295.76307,201.96574 295.10113,201.96574 C 294.55599,201.96574 294.10821,201.9268 293.75777,201.84893 C 293.40732,201.77105 293.13476,201.63964 292.94007,201.45468 C 292.74538,201.26973 292.6091,201.04583 292.53122,200.783 C 292.45334,200.52017 292.41441,200.22327 292.41441,199.8923 C 292.41441,199.58079 292.43874,199.23522 292.48742,198.85557 C 292.53609,198.47593 292.61396,198.10115 292.72105,197.73124 C 292.82812,197.36133 292.95467,197.01576 293.10069,196.69452 C 293.24671,196.37328 293.43166,196.10072 293.65556,195.87682 C 293.87945,195.65293 294.19095,195.47771 294.59007,195.35116 C 294.98918,195.22461 295.55864,195.16134 296.29847,195.16133 C 296.86307,195.16134 297.31572,195.21001 297.65643,195.30735 C 297.99713,195.4047 298.26483,195.54585 298.45953,195.7308 C 298.65421,195.91576 298.78563,196.13479 298.85378,196.38788 C 298.92191,196.64098 298.95598,196.92328 298.95599,197.23478 L 298.95599,197.23478 z"
       id="text2388" />
  </g>
</svg>
